<?xml version="1.0" encoding="iso-8859-1"?>
<!-- Generator: Adobe Illustrator 19.0.0, SVG Export Plug-In . SVG Version: 6.00 Build 0)  -->
<svg version="1.1" id="Layer_1" xmlns="http://www.w3.org/2000/svg" xmlns:xlink="http://www.w3.org/1999/xlink" x="0px" y="0px"
	 viewBox="0 0 512.43 512.43" style="enable-background:new 0 0 512.43 512.43;" xml:space="preserve">
<g>
	<g>
		<g>
			<path d="M74.96,51.886c-4.565,1.143-7.347,5.777-6.204,10.351c1.143,4.574,5.786,7.364,10.351,6.204
				c36.659-9.173,163.362-30.08,275.831,77.116l-13.517,13.517c-57.028-54.758-115.61-79.36-188.877-79.36
				c-21.111,0-43.486,2.014-68.386,6.17c-4.582,0.759-7.714,5.052-7.031,9.66l42.044,285.867l-27.699,27.699l-29.431-7.356
				c-4.557-1.152-9.207,1.638-10.351,6.204c-1.143,4.574,1.638,9.208,6.204,10.351l19.507,4.881l-11.529,11.52l-29.431-7.356
				c-4.557-1.152-9.207,1.638-10.351,6.204c-1.143,4.574,1.638,9.207,6.204,10.351l19.507,4.881l-11.52,11.529l-29.44-7.364
				c-4.557-1.143-9.207,1.638-10.351,6.204c-1.143,4.574,1.638,9.208,6.204,10.351l29.167,7.296l7.296,29.167
				c0.973,3.874,4.446,6.46,8.269,6.46c0.691,0,1.382-0.077,2.082-0.256c4.565-1.143,7.347-5.769,6.204-10.351l-7.364-29.44
				l11.529-11.529l4.881,19.516c0.973,3.874,4.446,6.46,8.269,6.46c0.691,0,1.382-0.077,2.082-0.256
				c4.565-1.143,7.347-5.768,6.204-10.351l-7.364-29.448l11.529-11.529l4.881,19.524c0.973,3.874,4.446,6.46,8.269,6.46
				c0.691,0,1.382-0.077,2.082-0.256c4.565-1.143,7.347-5.769,6.204-10.351l-7.364-29.457l27.665-27.674l285.909,42.044
				c0.427,0.068,0.845,0.094,1.254,0.094c4.105,0,7.714-2.961,8.405-7.125c18.193-109.133-3.166-184.329-73.31-257.34l13.534-13.551
				c107.281,112.563,86.383,239.275,77.218,275.942c-1.143,4.574,1.638,9.207,6.204,10.351c0.7,0.179,1.391,0.256,2.082,0.256
				c3.823,0,7.296-2.586,8.269-6.46c9.882-39.552,32.785-177.92-87.612-298.308C252.854,19.083,114.503,42.004,74.96,51.886z
				 M95.235,101.404c20.668-3.106,39.492-4.625,57.31-4.625c68.395,0,123.255,23.057,176.819,74.359L134.207,366.365L95.235,101.404
				z M411.259,417.428l-265.011-38.98l195.157-195.217C405.371,249.987,426.013,318.902,411.259,417.428z"/>
			<path d="M509.682,2.486c-2.295-2.278-5.692-3.081-8.747-2.031l-76.8,25.95c-3.26,1.109-5.547,4.062-5.777,7.501
				c-0.239,3.439,1.613,6.682,4.693,8.218l23.543,11.776L386.7,113.795c-3.337,3.328-3.337,8.73,0,12.066
				c1.664,1.664,3.849,2.5,6.033,2.5c2.185,0,4.369-0.836,6.033-2.5l59.896-59.896l11.776,23.544
				c1.451,2.901,4.412,4.719,7.629,4.719c0.205,0,0.41-0.009,0.614-0.026c3.439-0.247,6.4-2.543,7.484-5.82l25.6-77.158
				C512.78,8.152,511.977,4.773,509.682,2.486z M476.47,63.414l-7.834-15.676c-0.828-1.647-2.167-2.987-3.823-3.814l-15.812-7.91
				l41.173-13.909L476.47,63.414z"/>
		</g>
	</g>
</g>
</svg>
