<?xml version="1.0" encoding="iso-8859-1"?>
<!-- Generator: Adobe Illustrator 18.0.0, SVG Export Plug-In . SVG Version: 6.00 Build 0)  -->
<!DOCTYPE svg PUBLIC "-//W3C//DTD SVG 1.1//EN" "http://www.w3.org/Graphics/SVG/1.1/DTD/svg11.dtd">
<svg version="1.1" id="Capa_1" xmlns="http://www.w3.org/2000/svg" xmlns:xlink="http://www.w3.org/1999/xlink" x="0px" y="0px"
	 viewBox="0 0 463.084 463.084" style="enable-background:new 0 0 463.084 463.084;" xml:space="preserve">
<path d="M438.663,427.806l-16.83-34.897l-9.958-71.797c-0.165-1.186-0.712-2.287-1.56-3.134L225.417,133.079l17.323-17.323
	c2.148-2.148,2.148-5.63,0-7.778l-21.211-21.212c-1.032-1.031-2.431-1.611-3.889-1.611s-2.857,0.579-3.889,1.611l-29.612,29.612
	L98.922,31.163l6.03-6.03c2.148-2.148,2.148-5.63,0-7.778L89.209,1.611C88.178,0.58,86.778,0,85.32,0s-2.857,0.579-3.889,1.611
	L23.594,59.447c-2.148,2.148-2.148,5.63,0,7.778l15.743,15.743c1.031,1.031,2.431,1.611,3.889,1.611s2.857-0.579,3.889-1.611
	l6.03-6.03l85.216,85.215l-29.612,29.612c-2.148,2.148-2.148,5.63,0,7.778l21.212,21.212c1.032,1.031,2.431,1.611,3.889,1.611
	s2.857-0.579,3.889-1.611l17.323-17.323l184.899,184.899c0.847,0.847,1.946,1.394,3.133,1.559l65.174,9.039l-13.927,28.876
	c-4.539,9.411-2.624,20.698,4.765,28.085v0c4.796,4.797,11.095,7.195,17.396,7.194c6.299,0,12.601-2.398,17.396-7.194
	C441.287,448.503,443.201,437.217,438.663,427.806z M320.603,290.842L194.129,164.367l23.51-23.51l147.609,147.609
	c-4.753-1.061-10.482-1.788-18.186-1.788C334.368,286.679,327.016,288.643,320.603,290.842z M156.576,143.939l8.187-31.378
	l11.596,11.596L156.576,143.939z M117.616,65.413l14.558,14.558l-12.506,47.932l-14.558-14.558L117.616,65.413z M96.094,104.33
	L81.536,89.772l12.506-47.933L108.6,56.397L96.094,104.33z M141.189,88.987l14.558,14.558l-12.506,47.932l-14.558-14.558
	L141.189,88.987z M43.226,71.302l-7.965-7.965L85.32,13.278l7.965,7.965L43.226,71.302z M80.707,49.377L72.52,80.756L60.924,69.16
	L80.707,49.377z M133.851,209.089l-13.434-13.434l97.222-97.222l13.434,13.434L133.851,209.089z M186.351,172.146L308.91,294.704
	c-4.505,1.163-9.879,1.975-17.628,1.975c-12.979,0-19.313-2.272-26.021-4.677c-2.778-0.996-5.638-2.021-8.978-2.905l-93.441-93.442
	L186.351,172.146z M273.071,305.885c4.759,1.064,10.494,1.793,18.21,1.793c14.901,0,22.448-2.706,29.747-5.323
	c6.708-2.405,13.045-4.677,26.033-4.677c12.976,0,19.308,2.27,26.011,4.672c2.771,0.994,5.626,2.016,8.957,2.897l19.203,19.203
	l8.824,63.621l-63.622-8.823L273.071,305.885z M426.122,448.112c-5.305,5.304-13.935,5.303-19.237,0c-0.001,0-0.001,0-0.001,0
	c-4.085-4.084-5.144-10.324-2.634-15.527l12.253-25.405l12.252,25.405C431.265,437.787,430.206,444.028,426.122,448.112z"/>
</svg>
