<?xml version="1.0" encoding="iso-8859-1"?>
<!-- Generator: Adobe Illustrator 19.0.0, SVG Export Plug-In . SVG Version: 6.00 Build 0)  -->
<svg version="1.1" id="Layer_1" xmlns="http://www.w3.org/2000/svg" xmlns:xlink="http://www.w3.org/1999/xlink" x="0px" y="0px"
	 viewBox="0 0 512.329 512.329" style="enable-background:new 0 0 512.329 512.329;" xml:space="preserve">
<g>
	<g>
		<g>
			<path d="M270.566,122.135c-3.328-3.337-8.73-3.337-12.066,0c-3.336,3.328-3.336,8.73,0,12.066l119.467,119.467
				c1.664,1.664,3.849,2.5,6.033,2.5c2.185,0,4.369-0.836,6.033-2.5c3.337-3.337,3.337-8.738,0-12.066L270.566,122.135z"/>
			<path d="M51.371,452.435c-4.71,0-8.491,3.823-8.491,8.533c0,4.71,3.866,8.533,8.576,8.533c4.719,0,8.533-3.823,8.533-8.533
				c0-4.71-3.814-8.533-8.533-8.533H51.371z"/>
			<path d="M502.349,192.151c-1.527-2.628-4.369-4.25-7.415-4.25c-34.338,0-73.267,0-121.967-48.7
				c-2.338-2.347-4.471-4.642-6.588-6.938l34.688-34.697l13.534,13.534l-19.533,19.533c-3.337,3.328-3.337,8.73,0,12.066
				c1.664,1.664,3.849,2.5,6.033,2.5s4.369-0.836,6.033-2.5l25.566-25.566c3.337-3.336,3.337-8.738,0-12.066l-25.6-25.6
				c-3.328-3.336-8.73-3.336-12.066,0l-39.765,39.765c-30.908-39.569-31.002-72.491-31.002-101.999c0-3.063-1.638-5.888-4.301-7.407
				c-0.683-0.401-17.186-9.668-42.633-9.668c-23.023,0-58.3,7.834-95.633,45.175c-72.03,72.03-37.035,135.595-35.507,138.257
				c1.519,2.662,4.344,4.309,7.407,4.309c34.347,0,73.267,0,121.967,48.7c2.347,2.338,4.48,4.642,6.596,6.938L85.171,440.531
				c-2.338,2.338-3.123,5.811-1.997,8.926c1.451,4.045,2.159,7.808,2.159,11.511c0,18.816-15.309,34.133-34.133,34.133
				c-18.816,0-34.133-15.317-34.133-34.133c0-18.825,15.317-34.133,34.133-34.133c3.721,0,7.484,0.7,11.503,2.159
				c3.098,1.126,6.588,0.35,8.934-1.997l181.897-181.897c3.337-3.337,3.337-8.738,0-12.066c-3.337-3.337-8.73-3.337-12.066,0
				L63.189,411.305c-4.036-1.024-8.055-1.536-11.989-1.536c-28.228,0-51.2,22.963-51.2,51.2c0,28.228,22.972,51.2,51.2,51.2
				c28.237,0,51.2-22.972,51.2-51.2c0-3.985-0.503-7.945-1.536-11.998l192.401-192.41c30.908,39.569,31.002,72.482,31.002,102.008
				c0,3.063,1.647,5.888,4.301,7.407c0.691,0.393,17.195,9.651,42.633,9.651c23.023,0,58.308-7.834,95.633-45.158
				C539.255,258.037,503.893,194.805,502.349,192.151z M454.767,318.402c-26.274,26.274-55.177,40.158-83.567,40.158
				c-13.79,0-24.346-3.277-29.875-5.47c-0.128-30.362-2.475-69.862-41.301-115.098c-0.043-0.043-0.06-0.102-0.094-0.154
				c-0.017-0.017-0.043-0.026-0.068-0.043c-3.763-4.378-7.748-8.781-12.228-13.261c-50.876-50.876-95.224-53.555-128.572-53.692
				c-5.589-14.046-18.022-60.715,34.705-113.442c26.658-26.658,54.775-40.175,83.567-40.175c13.781,0,24.354,3.285,29.875,5.478
				c0.128,30.319,2.483,69.743,41.114,114.876c0.102,0.119,0.145,0.282,0.265,0.401c0.051,0.051,0.119,0.068,0.171,0.12
				c3.746,4.343,7.697,8.721,12.143,13.167c50.893,50.893,95.258,53.555,128.649,53.692
				C495.181,218.895,507.81,265.359,454.767,318.402z"/>
		</g>
	</g>
</g>
</svg>
