<?xml version="1.0" encoding="iso-8859-1"?>
<!-- Generator: Adobe Illustrator 19.0.0, SVG Export Plug-In . SVG Version: 6.00 Build 0)  -->
<svg version="1.1" id="Layer_1" xmlns="http://www.w3.org/2000/svg" xmlns:xlink="http://www.w3.org/1999/xlink" x="0px" y="0px"
	 viewBox="0 0 512 512" style="enable-background:new 0 0 512 512;" xml:space="preserve">
<g>
	<g>
		<path d="M495.301,108.534c-9.217,0-16.584,7.478-16.584,16.695v8.692c-21.431-14.407-45.958-26.584-72.458-36.236V75.349
			c0-9.223-7.478-16.695-16.695-16.695s-16.584,7.473-16.584,16.695v11.817c-31.712-8.523-65.642-13.682-100.284-14.932V55.209
			c0-9.223-7.478-16.695-16.695-16.695c-9.217,0-16.584,7.473-16.584,16.695v17.026c-34.642,1.249-68.572,6.409-100.284,14.932
			V75.349c0-9.223-7.478-16.695-16.695-16.695c-9.217,0-16.584,7.473-16.584,16.695v22.335c-26.5,9.652-51.027,21.829-72.458,36.236
			v-8.692c0-9.217-7.478-16.695-16.695-16.695c-9.217,0-16.584,7.479-16.584,16.695c0,66.955,0,123.501,0,189.106
			c0,6.423,3.574,12.282,9.377,15.054c33.826,16.207,74.249,13.336,105.51-7.49c24.793-16.533,56.836-16.554,81.651,0
			c36.001,24.015,82.651,24.044,118.695,0c24.793-16.533,56.836-16.554,81.651,0c31.249,20.826,71.674,23.706,105.51,7.49
			c5.804-2.771,9.489-8.63,9.489-15.054c0-50.456,0-77.015,0-90.095c0-8.411,0-11.248,0-11.281c0-12.87,0-38.791,0-87.73
			C511.997,116.013,504.519,108.534,495.301,108.534z M105.852,170.59c-29.495,13.996-54.337,31.99-72.458,52.759v-47.831
			c20.289-16.829,44.961-31.031,72.458-42.169V170.59z M139.131,121.732c31.304-9.186,65.334-14.771,100.284-16.114v33.461
			c-35.9,1.516-69.897,7.879-100.284,18.095V121.732z M296.825,294.119c-24.793,16.543-56.836,16.543-81.651,0
			c-18.021-12.022-38.685-18.032-59.347-18.032c-0.364,0-0.725,0.076-1.089,0.079c19.065-19.508,54.57-37.308,101.261-37.308
			s82.196,17.798,101.261,37.308C336.236,275.951,315.165,281.885,296.825,294.119z M372.979,157.174
			c-30.387-10.215-64.384-16.578-100.284-18.095v-33.461c34.95,1.343,68.98,6.929,100.284,16.114V157.174z M478.717,223.349
			c-18.121-20.768-42.963-38.761-72.458-52.759v-37.243c27.497,11.138,52.169,25.34,72.458,42.169V223.349z"/>
	</g>
</g>
<g>
	<g>
		<path d="M510.356,373.912c-3.989-8.315-13.946-11.88-22.261-7.848c-23.282,11.141-51.076,9.162-72.575-5.163
			c-36.043-24.044-82.651-24.044-118.695,0c-24.793,16.533-56.836,16.554-81.651,0c-36.043-24.044-82.651-24.044-118.695,0
			c-21.478,14.315-49.272,16.326-72.575,5.163c-8.326-4.021-18.294-0.467-22.261,7.848c-3.989,8.315-0.467,18.283,7.848,22.261
			c33.826,16.207,74.249,13.336,105.51-7.49c24.793-16.543,56.836-16.543,81.651,0c36.001,24.015,82.651,24.044,118.695,0
			c24.793-16.543,56.836-16.543,81.651,0c31.249,20.826,71.674,23.706,105.51,7.49C510.824,392.195,514.345,382.227,510.356,373.912
			z"/>
	</g>
</g>
<g>
	<g>
		<path d="M510.356,440.694c-3.989-8.315-13.946-11.859-22.261-7.848c-23.282,11.141-51.076,9.162-72.575-5.163
			c-36.043-24.044-82.651-24.044-118.695,0c-24.793,16.543-56.836,16.543-81.651,0c-36.043-24.044-82.651-24.044-118.695,0
			c-21.478,14.326-49.272,16.315-72.575,5.163c-8.326-4-18.294-0.456-22.261,7.848c-3.989,8.315-0.467,18.283,7.848,22.261
			c33.826,16.207,74.249,13.336,105.51-7.49c24.793-16.543,56.836-16.543,81.651,0c36.001,24.015,82.651,24.044,118.695,0
			c24.793-16.543,56.836-16.543,81.651,0c31.249,20.826,71.674,23.706,105.51,7.49C510.824,458.977,514.345,449.009,510.356,440.694
			z"/>
	</g>
</g>
</svg>
