<svg viewBox="0 0 384 384" xmlns="http://www.w3.org/2000/svg">
  <path d="m32 32h96v-32h-128v128h32zm0 0"/><path d="m256 32h96v96h32v-128h-128zm0 0"/><path d="m32 256h-32v128h128v-32h-96zm0 0"/><path d="m352 352h-96v32h128v-128h-32zm0 0"/><path d="m286.550781 208h49.449219v-32h-49.449219c-6.773437-40.113281-38.4375-71.785156-78.550781-78.550781v-49.449219h-32v49.449219c-40.113281 6.773437-71.785156 38.4375-78.550781 78.550781h-49.449219v32h49.449219c6.773437 40.113281 38.4375 71.785156 78.550781 78.550781v49.449219h32v-49.449219c40.113281-6.765625 71.785156-38.4375 78.550781-78.550781zm-156.445312 0h45.894531v-32h-45.894531c5.804687-22.433594 23.460937-40.089844 45.894531-45.894531v45.894531h32v-45.894531c22.433594 5.804687 40.089844 23.460937 45.894531 45.894531h-45.894531v32h45.894531c-5.804687 22.433594-23.460937 40.089844-45.894531 45.894531v-45.894531h-32v45.894531c-22.433594-5.804687-40.089844-23.460937-45.894531-45.894531zm0 0"/>
</svg>