<svg viewBox="0 0 512 512.00892" xmlns="http://www.w3.org/2000/svg"><path d="m494.9375 204.808594h-8.53125v-162.132813c0-4.714843-3.824219-8.535156-8.535156-8.535156-4.710938 0-8.535156 3.820313-8.535156 8.535156v10.914063l-56.316407 18.773437c-5.464843 1.8125-9.046875 7.054688-8.75 12.800781.292969 5.75 4.390625 10.597657 10.011719 11.84375l55.054688 12.226563v95.574219h-8.53125c-9.425782 0-17.066407 7.640625-17.066407 17.066406v17.066406h-42.667969v-17.066406c0-9.425781-7.640624-17.066406-17.066406-17.066406h-34.132812v-34.132813h8.722656c4.792969.003907 9.1875-2.675781 11.382812-6.9375 2.195313-4.261719 1.828126-9.390625-.957031-13.296875l-102.636719-145.125c-1.683593-2.253906-4.097656-3.847656-6.828124-4.503906-2.226563-1.082031-4.828126-1.082031-7.058594 0-2.753906.667969-5.1875 2.277344-6.886719 4.546875l-102.570313 145.066406c-2.789062 3.894531-3.167968 9.023438-.980468 13.289063 2.183594 4.261718 6.566406 6.949218 11.359375 6.960937h8.71875v34.132813h-34.132813c-9.425781 0-17.066406 7.640625-17.066406 17.066406v17.066406h-42.667969v-17.066406c0-9.425781-7.640625-17.066406-17.066406-17.066406h-8.53125v-95.574219l55.082031-12.234375c5.605469-1.265625 9.679688-6.109375 9.96875-11.84375.285156-5.738281-3.28125-10.964844-8.730468-12.785156l-56.320313-18.78125v-10.914063c0-4.714843-3.820313-8.535156-8.535156-8.535156-4.710938 0-8.53125 3.820313-8.53125 8.535156v162.132813h-8.535157c-9.425781 0-17.06640575 7.640625-17.06640575 17.066406v273.066406c0 9.425782 7.64062475 17.066406 17.06640575 17.066406h477.867188c9.425781 0 17.066406-7.640624 17.066406-17.066406v-273.066406c0-9.425781-7.640625-17.066406-17.066406-17.066406zm-61.941406-121.113282 36.339844-12.109374v20.183593zm-353.980469 0-36.34375 8.074219v-20.183593zm381.789063 377.113282h-7.039063c1.097656-3.070313 2.765625-5.902344 4.914063-8.355469 4.484374-5.171875 10.878906-8.304687 17.714843-8.671875 6.835938-.371094 13.53125 2.054688 18.542969 6.71875v10.308594zm-58.207032 0c1.09375-3.066406 2.746094-5.898438 4.882813-8.355469 8.429687-9.738281 22.835937-11.574219 33.441406-4.265625-2.246094 3.929688-3.859375 8.1875-4.769531 12.621094zm-51.199218 0c2.574218-7.480469 8.5-13.328125 16.011718-15.800782 7.515625-2.472656 15.757813-1.285156 22.269532 3.207032-2.230469 3.921875-3.828126 8.171875-4.726563 12.59375zm32.605468-238.933594v17.066406c0 9.425782 7.640625 17.066406 17.066406 17.066406h42.667969c9.425781 0 17.066407-7.640624 17.066407-17.066406v-17.066406h34.132812v208.402344c-14.074219-6.207032-30.40625-4.296875-42.667969 4.992187-15.140625-11.457031-36.054687-11.457031-51.199219 0-15.144531-11.519531-36.128906-11.453125-51.199218.160157v-213.554688zm-136.53125-189.609375v95.742187c0 4.714844 3.820313 8.535157 8.53125 8.535157 4.714844 0 8.535156-3.820313 8.535156-8.535157v-95.742187l85.820313 121.34375h-188.707031zm85.332032 138.410156v290.132813h-17.066407v-59.734375c0-32.988281-26.742187-59.730469-59.734375-59.730469-32.988281 0-59.734375 26.742188-59.734375 59.730469v59.734375h-17.066406v-290.132813zm-119.46875 290.132813v-17.066406h34.136718v17.066406zm84.480468-68.265625h-33.277344v-33.28125c16.742188 3.453125 29.828126 16.535156 33.277344 33.28125zm-84.480468 17.066406h34.136718v17.066406h-34.136718zm51.203124 0h34.132813v17.066406h-34.132813zm-17.066406-17.066406h-33.28125c3.453125-16.746094 16.535156-29.828125 33.28125-33.28125zm17.066406 51.199219h34.132813v17.066406h-34.132813zm-188.683593 17.066406c-.914063-4.421875-2.523438-8.675782-4.769531-12.59375 10.589843-7.308594 24.980468-5.492188 33.425781 4.214844 2.140625 2.464843 3.800781 5.304687 4.898437 8.378906zm-24.652344 0h-34.132813v-10.308594c5.011719-4.660156 11.699219-7.085938 18.53125-6.722656 6.832032.363281 13.222657 3.484375 17.710938 8.652344 2.152344 2.460937 3.824219 5.300781 4.933594 8.378906zm75.855469 0c-.917969-4.421875-2.527344-8.675782-4.769532-12.59375 6.511719-4.492188 14.75-5.679688 22.265626-3.207032 7.515624 2.472657 13.441406 8.320313 16.011718 15.800782zm-75.855469-238.933594v17.066406c0 9.425782 7.640625 17.066406 17.066406 17.066406h42.667969c9.425781 0 17.066406-7.640624 17.066406-17.066406v-17.066406h34.132813v213.554688c-15.070313-11.609376-36.050781-11.679688-51.199219-.167969-15.148438-11.449219-36.050781-11.449219-51.199219 0-12.265625-9.28125-28.59375-11.191407-42.667969-4.984375v-208.402344zm443.734375 273.066406h-477.867188v-17.066406h477.867188zm0 0"/><path d="m256.003906 273.074219c4.714844 0 8.535156-3.820313 8.535156-8.53125v-42.667969c0-4.710938-3.820312-8.53125-8.535156-8.53125-4.710937 0-8.53125 3.820312-8.53125 8.53125v42.667969c0 4.710937 3.820313 8.53125 8.53125 8.53125zm0 0"/><path d="m392.539062 366.941406c4.710938 0 8.53125-3.820312 8.53125-8.53125v-34.132812c0-4.714844-3.820312-8.535156-8.53125-8.535156-4.714843 0-8.535156 3.820312-8.535156 8.535156v34.132812c0 4.710938 3.820313 8.53125 8.535156 8.53125zm0 0"/><path d="m452.269531 366.941406c4.714844 0 8.535157-3.820312 8.535157-8.53125v-34.132812c0-4.714844-3.820313-8.535156-8.535157-8.535156-4.710937 0-8.53125 3.820312-8.53125 8.535156v34.132812c0 4.710938 3.820313 8.53125 8.53125 8.53125zm0 0"/><path d="m59.738281 366.941406c4.710938 0 8.53125-3.820312 8.53125-8.53125v-34.132812c0-4.714844-3.820312-8.535156-8.53125-8.535156-4.714843 0-8.535156 3.820312-8.535156 8.535156v34.132812c0 4.710938 3.820313 8.53125 8.535156 8.53125zm0 0"/><path d="m119.472656 366.941406c4.710938 0 8.53125-3.820312 8.53125-8.53125v-34.132812c0-4.714844-3.820312-8.535156-8.53125-8.535156-4.714844 0-8.535156 3.820312-8.535156 8.535156v34.132812c0 4.710938 3.820312 8.53125 8.535156 8.53125zm0 0"/></svg>