<?xml version="1.0" encoding="iso-8859-1"?>
<!-- Generator: Adobe Illustrator 17.1.0, SVG Export Plug-In . SVG Version: 6.00 Build 0)  -->
<!DOCTYPE svg PUBLIC "-//W3C//DTD SVG 1.1//EN" "http://www.w3.org/Graphics/SVG/1.1/DTD/svg11.dtd">
<svg version="1.1" id="Capa_1" xmlns="http://www.w3.org/2000/svg" xmlns:xlink="http://www.w3.org/1999/xlink" x="0px" y="0px"
	 viewBox="0 0 511.993 511.993" style="enable-background:new 0 0 511.993 511.993;" xml:space="preserve">
<g>
	<path d="M425.307,232.772c-27.556-44.9-64.013-84.101-100.846-108.643c2.292-3.679,3.621-8.018,3.621-12.663
		c0-9.769-5.865-18.189-14.257-21.939l17.286-67.799c1.908-6.755,0.675-13.008-3.392-17.173c-4.093-4.19-10.367-5.565-17.213-3.765
		c-0.135,0.035-0.27,0.074-0.402,0.116c-0.326,0.104-32.734,10.45-43.497,13.542c-6.928,1.985-19.089,1.997-26.025,0.021
		c-10.876-3.098-43.626-13.486-43.956-13.591c-0.132-0.042-0.266-0.081-0.399-0.115c-6.848-1.787-13.122-0.408-17.213,3.787
		s-5.313,10.503-3.353,17.307c0.024,0.085,0.05,0.169,0.078,0.253l21.937,67.639c-8.128,3.855-13.764,12.139-13.764,21.716
		c0,4.645,1.329,8.984,3.622,12.663c-36.833,24.542-73.29,63.743-100.846,108.643c-30.289,49.353-46.97,100.155-46.97,143.049
		c0,41.455,12.289,74.188,36.526,97.288c27.07,25.802,68.681,38.884,123.678,38.884h112.151c54.997,0,96.608-13.082,123.678-38.884
		c24.237-23.101,36.526-55.833,36.526-97.288C472.277,332.928,455.596,282.125,425.307,232.772z M272.063,119.488
		c-0.003,0-0.005,0-0.008,0h-32.112c-0.006,0-0.012,0-0.018,0h-31.993c-4.423,0-8.021-3.599-8.021-8.021
		c0-4.417,3.59-8.012,8.006-8.021c0.005,0,0.01,0.001,0.014,0.001c0.008,0,0.017-0.002,0.025-0.002h40.006
		c0.009,0,0.017,0.002,0.026,0.002c0.014,0,0.028-0.002,0.042-0.002h15.933c0.014,0,0.028,0.002,0.042,0.002
		c0.009,0,0.017-0.002,0.026-0.002h40.03c4.423,0,8.021,3.599,8.021,8.021s-3.599,8.021-8.021,8.021H272.063z M190.754,16.001
		c0.321,0.02,0.741,0.076,1.259,0.201c3.181,1.009,33.441,10.597,44.187,13.657c9.768,2.78,25.062,2.769,34.821-0.031
		c10.628-3.053,40.552-12.594,43.722-13.606c0.506-0.123,0.919-0.18,1.237-0.201c-0.032,0.354-0.111,0.824-0.28,1.408
		c-0.022,0.079-0.044,0.158-0.064,0.238l-17.791,69.778h-22.021l11.633-29.083c1.641-4.102-0.354-8.758-4.457-10.398
		c-4.103-1.64-8.758,0.354-10.399,4.457l-14.01,35.024h-5.189l-14.01-35.024c-1.641-4.104-6.296-6.098-10.399-4.457
		c-4.102,1.641-6.098,6.297-4.457,10.398l11.633,29.083h-22.422L191.005,17.32C190.854,16.775,190.783,16.335,190.754,16.001z
		 M424.712,461.528c-23.995,22.869-61.892,34.465-112.639,34.465H199.921c-50.748,0-88.645-11.596-112.639-34.465
		c-20.945-19.964-31.565-48.8-31.565-85.707c0-39.979,15.841-87.81,44.606-134.68c27.548-44.887,64.191-83.696,100.677-106.677
		c2.196,0.663,4.523,1.024,6.932,1.024h17.095l-7.73,11.595c-2.451,3.676-1.458,8.644,2.219,11.094
		c1.364,0.909,2.905,1.345,4.43,1.345c2.585,0,5.122-1.251,6.664-3.563l13.646-20.47h23.48l13.646,20.47
		c1.542,2.313,4.078,3.563,6.664,3.563c1.525,0,3.066-0.436,4.43-1.345c3.676-2.45,4.67-7.418,2.219-11.094l-7.73-11.595h17.095
		c2.41,0,4.737-0.361,6.933-1.024c36.485,22.981,73.129,61.791,100.676,106.677c28.765,46.87,44.606,94.7,44.606,134.68
		C456.277,412.728,445.656,441.564,424.712,461.528z"/>
	<path d="M255.996,255.649c14.56,0,28.041,6.943,31.361,16.16c0.459,1.27,0.692,2.574,0.692,3.877
		c0,13.245,10.776,24.021,24.021,24.021s24.021-10.776,24.021-24.021c0-6.862-1.191-13.648-3.541-20.173
		c-7.882-21.878-27.475-38.306-53.036-44.801c-2.267-10.906-11.952-19.128-23.521-19.128c-11.545,0-21.214,8.188-23.506,19.061
		c-14.892,3.899-28.328,11.508-38.312,21.784c-11.788,12.132-18.279,27.494-18.279,43.257c0,37.54,35.931,68.081,80.097,68.081
		c15.131,0,32.054,8.569,32.054,20.037c0,11.469-16.923,20.038-32.054,20.038c-15.131,0-32.054-8.569-32.054-20.038
		c0-13.245-10.776-24.021-24.021-24.021S175.9,350.56,175.9,363.805c0,15.764,6.491,31.126,18.279,43.258
		c9.983,10.275,23.42,17.885,38.312,21.783c2.292,10.874,11.961,19.062,23.506,19.062c11.545,0,21.214-8.188,23.506-19.062
		c14.892-3.898,28.328-11.508,38.312-21.783c11.788-12.132,18.279-27.494,18.279-43.258c0-37.539-35.931-68.08-80.097-68.08
		c-15.131,0-32.054-8.569-32.054-20.038C223.943,264.219,240.865,255.649,255.996,255.649z M255.996,311.725
		c35.343,0,64.097,23.363,64.097,52.08c0,23.902-20.847,45.214-49.569,50.675c-3.774,0.718-6.506,4.018-6.506,7.859v1.547
		c0,4.423-3.599,8.021-8.021,8.021c-4.423,0-8.021-3.599-8.021-8.021v-1.547c0-3.842-2.731-7.142-6.506-7.859
		c-28.722-5.461-49.569-26.772-49.569-50.675c0-4.423,3.599-8.021,8.021-8.021s8.021,3.599,8.021,8.021
		c0,19.871,21.557,36.038,48.054,36.038s48.054-16.167,48.054-36.038s-21.557-36.037-48.054-36.037
		c-35.343,0-64.097-23.363-64.097-52.081c0-23.902,20.847-45.214,49.569-50.674c3.774-0.718,6.506-4.018,6.506-7.859v-1.547
		c0-4.423,3.599-8.021,8.021-8.021c4.423,0,8.021,3.599,8.021,8.021v1.645c0,3.853,2.746,7.158,6.534,7.864
		c22.511,4.198,40.5,17.924,46.948,35.821c1.721,4.778,2.594,9.741,2.594,14.75c0,4.423-3.599,8.021-8.021,8.021
		s-8.021-3.599-8.021-8.021c0-3.164-0.554-6.3-1.643-9.31c-5.668-15.737-24.753-26.728-46.411-26.728
		c-26.497,0-48.054,16.166-48.054,36.037S229.499,311.725,255.996,311.725z"/>
</g>
</svg>
