<?xml version="1.0" encoding="iso-8859-1"?>
<!-- Generator: Adobe Illustrator 19.0.0, SVG Export Plug-In . SVG Version: 6.00 Build 0)  -->
<svg version="1.1" id="Capa_1" xmlns="http://www.w3.org/2000/svg" xmlns:xlink="http://www.w3.org/1999/xlink" x="0px" y="0px"
	 viewBox="0 0 512 512" style="enable-background:new 0 0 512 512;" xml:space="preserve">
<g>
	<g>
		<path d="M437,122.58H190v-10h-26.438c5.174-5.599,9.715-11.873,13.461-18.751L150.677,79.48
			c-11.119,20.417-32.452,33.1-55.674,33.1c-23.25,0-44.596-12.706-55.707-33.16L12.935,93.74
			c3.755,6.913,8.313,13.217,13.509,18.84H0v15c0,13.234,10.767,24,24,24h11.118l13.138,72.261
			c3.028,16.652,17.511,28.739,34.436,28.739H94.29c16.527,21.286,37.185,39.269,60.601,52.685l12.511,127.315h45.618
			l22.594-101.177c7.299,0.782,14.624,1.177,21.9,1.177h134.298l6.899,21.791l-9.683,78.209h47.734L482,298.78v48.8h30v-150
			C512,156.225,478.355,122.58,437,122.58z M112.229,218.474c-0.433,2.379-2.502,4.106-4.92,4.106H82.691
			c-2.418,0-4.487-1.727-4.92-4.105L63.974,142.58h62.053L112.229,218.474z M482,205.113l-54.56,161.374l1.849-14.928
			l-34.988-110.506l-28.602,9.056l16.614,52.472H257.514c-10.271,0-20.666-0.922-30.895-2.74l-14.136-2.512l-19.602,87.781
			l-9.704-98.752l-7.206-3.752c-18.019-9.384-34.309-21.873-48.069-36.729c7.067-5.145,12.18-12.9,13.841-22.035L154.7,152.58h4.51
			c2.076,27.129,20.867,49.655,46.071,57.252c8.565,2.582,15.703,8.675,18.995,16.993c6.89,17.409,23.892,29.755,43.724,29.755
			c19.644,0,36.512-12.113,43.526-29.262c3.505-8.569,10.84-14.882,19.739-17.434c26.145-7.497,46.07-29.855,50.015-57.304H437
			c24.853,0,45,20.147,45,45V205.113z"/>
	</g>
</g>
<g>
	<g>
		<circle cx="421" cy="199.58" r="20"/>
	</g>
</g>
</svg>
