<?xml version="1.0" encoding="iso-8859-1"?>
<!-- Generator: Adobe Illustrator 19.0.0, SVG Export Plug-In . SVG Version: 6.00 Build 0)  -->
<svg version="1.1" id="Capa_1" xmlns="http://www.w3.org/2000/svg" xmlns:xlink="http://www.w3.org/1999/xlink" x="0px" y="0px"
	 viewBox="0 0 512 512" style="enable-background:new 0 0 512 512;" xml:space="preserve">
<g>
	<g>
		<path d="M506.551,60.208c-3.734-1.909-8.267-1.282-11.346,1.569l-88.753,82.219l-11.751-57.223
			c-0.777-3.781-3.661-6.778-7.409-7.699c-3.75-0.919-7.692,0.397-10.134,3.389l-51.631,63.267L265.18,6.129
			c-1.582-3.662-5.189-6.032-9.179-6.032c-3.989,0-7.596,2.37-9.179,6.032l-60.515,139.99l-50.438-62.622
			c-2.428-3.015-6.379-4.357-10.143-3.446c-3.763,0.912-6.662,3.914-7.44,7.707l-11.739,57.163l-89.75-83.143
			c-3.078-2.851-7.61-3.478-11.346-1.569c-3.737,1.909-5.884,5.948-5.377,10.114l38.991,320.255
			c-0.108,0.59-0.166,1.198-0.166,1.819v109.507c0,5.522,4.477,10,10,10h414.203c5.522,0,10-4.478,10-10V392.397
			c0-0.622-0.057-1.231-0.166-1.822l38.991-320.252C512.435,66.157,510.288,62.118,506.551,60.208z M379.344,111.416l9.954,48.472
			l-41.165,38.135l-13.667-31.615L379.344,111.416z M133.607,112.573l43.731,54.295l-13.468,31.156l-40.169-37.212L133.607,112.573z
			 M453.103,491.904H58.9v-89.507h394.203V491.904z M453.785,382.397H58.218l-34.991-287.4L160.645,222.3
			c2.381,2.206,5.684,3.119,8.859,2.449c3.175-0.67,5.829-2.839,7.116-5.817l79.381-183.633l79.382,183.633
			c1.287,2.979,3.94,5.147,7.116,5.817c3.17,0.669,6.478-0.244,8.858-2.449L488.776,94.996L453.785,382.397z"/>
	</g>
</g>
<g>
	<g>
		<path d="M309.248,220.75l-45.06-64.261c-1.872-2.67-4.926-4.259-8.187-4.259s-6.316,1.589-8.188,4.259l-45.06,64.261
			c-2.417,3.446-2.417,8.036,0,11.482l45.06,64.262c1.872,2.669,4.928,4.259,8.188,4.259c3.261,0,6.317-1.59,8.187-4.259
			l45.06-64.262C311.665,228.786,311.665,224.196,309.248,220.75z M256.001,273.335l-32.846-46.843l32.846-46.843l32.846,46.842
			L256.001,273.335z"/>
	</g>
</g>
<g>
	<g>
		<path d="M399.243,411.577c-19.621,0-35.584,15.958-35.584,35.573c0,19.615,15.963,35.574,35.584,35.574
			c19.621,0,35.584-15.959,35.584-35.574S418.864,411.577,399.243,411.577z M399.243,462.723c-8.593,0-15.584-6.986-15.584-15.574
			c0-8.587,6.991-15.573,15.584-15.573c8.592,0,15.584,6.987,15.584,15.573C414.827,455.737,407.836,462.723,399.243,462.723z"/>
	</g>
</g>
<g>
	<g>
		<path d="M303.748,411.577c-19.621,0-35.584,15.958-35.584,35.573c0,19.615,15.963,35.574,35.584,35.574
			c19.621,0,35.584-15.959,35.584-35.574S323.369,411.577,303.748,411.577z M303.748,462.723c-8.593,0-15.584-6.986-15.584-15.574
			c0-8.587,6.991-15.573,15.584-15.573c8.593,0,15.584,6.987,15.584,15.573C319.332,455.737,312.341,462.723,303.748,462.723z"/>
	</g>
</g>
<g>
	<g>
		<path d="M208.254,411.577c-19.621,0-35.584,15.958-35.584,35.573c0,19.615,15.963,35.574,35.584,35.574
			c19.621,0,35.584-15.959,35.584-35.574S227.875,411.577,208.254,411.577z M208.254,462.723c-8.593,0-15.584-6.986-15.584-15.574
			c0-8.587,6.991-15.573,15.584-15.573c8.593,0,15.584,6.987,15.584,15.573C223.838,455.737,216.847,462.723,208.254,462.723z"/>
	</g>
</g>
<g>
	<g>
		<path d="M112.76,411.577c-19.621,0-35.584,15.958-35.584,35.573c0,19.615,15.963,35.574,35.584,35.574
			c19.621,0,35.584-15.959,35.584-35.574S132.381,411.577,112.76,411.577z M112.76,462.723c-8.593,0-15.584-6.986-15.584-15.574
			c0-8.587,6.991-15.573,15.584-15.573c8.593,0,15.584,6.987,15.584,15.573C128.344,455.737,121.353,462.723,112.76,462.723z"/>
	</g>
</g>
<g>
	<g>
		<path d="M445.192,201.682c-5.495-0.674-10.469,3.237-11.136,8.719L418.03,342.042h-38.897c-5.522,0-10,4.478-10,10
			c0,5.522,4.478,10,10,10h47.754c5.056,0,9.315-3.773,9.926-8.791l17.097-140.433C454.577,207.335,450.673,202.349,445.192,201.682
			z"/>
	</g>
</g>
<g>
	<g>
		<path d="M350.581,350.09c-0.12-0.64-0.32-1.27-0.57-1.87c-0.25-0.61-0.56-1.19-0.92-1.729c-0.36-0.551-0.78-1.061-1.24-1.521
			c-0.46-0.46-0.97-0.88-1.52-1.24c-0.54-0.359-1.12-0.67-1.73-0.92c-0.599-0.25-1.229-0.45-1.87-0.569
			c-1.29-0.261-2.62-0.261-3.899,0c-0.641,0.119-1.271,0.319-1.88,0.569c-0.601,0.25-1.181,0.561-1.721,0.92
			c-0.55,0.36-1.06,0.78-1.52,1.24c-0.46,0.46-0.88,0.97-1.25,1.521c-0.36,0.539-0.66,1.119-0.91,1.729
			c-0.25,0.599-0.45,1.23-0.57,1.87c-0.13,0.639-0.199,1.3-0.199,1.95c0,0.649,0.069,1.31,0.199,1.96c0.12,0.63,0.32,1.26,0.57,1.87
			c0.25,0.6,0.56,1.18,0.92,1.72c0.36,0.55,0.78,1.06,1.24,1.52c0.46,0.46,0.97,0.881,1.52,1.25c0.54,0.36,1.12,0.66,1.721,0.91
			c0.609,0.25,1.239,0.45,1.88,0.57c0.639,0.13,1.3,0.2,1.95,0.2c0.649,0,1.309-0.07,1.949-0.2c0.641-0.12,1.27-0.32,1.87-0.57
			c0.61-0.25,1.19-0.55,1.73-0.91c0.55-0.369,1.06-0.79,1.52-1.25c0.46-0.46,0.88-0.97,1.24-1.52c0.36-0.54,0.67-1.12,0.92-1.72
			c0.25-0.61,0.45-1.24,0.57-1.87c0.13-0.65,0.2-1.311,0.2-1.96C350.781,351.39,350.711,350.73,350.581,350.09z"/>
	</g>
</g>
<g>
	<g>
		<path d="M302.388,342.043H93.972L77.945,210.401c-0.668-5.482-5.658-9.39-11.135-8.718c-5.482,0.668-9.385,5.654-8.718,11.136
			L75.19,353.251c0.611,5.018,4.871,8.791,9.927,8.791h217.272c5.522,0,9.999-4.477,9.999-9.999
			C312.388,346.521,307.91,342.043,302.388,342.043z"/>
	</g>
</g>
</svg>
