<?xml version="1.0" encoding="iso-8859-1"?>
<!-- Generator: Adobe Illustrator 18.0.0, SVG Export Plug-In . SVG Version: 6.00 Build 0)  -->
<!DOCTYPE svg PUBLIC "-//W3C//DTD SVG 1.1//EN" "http://www.w3.org/Graphics/SVG/1.1/DTD/svg11.dtd">
<svg version="1.1" id="Capa_1" xmlns="http://www.w3.org/2000/svg" xmlns:xlink="http://www.w3.org/1999/xlink" x="0px" y="0px"
	 viewBox="0 0 410.988 410.988" style="enable-background:new 0 0 410.988 410.988;" xml:space="preserve">
<g>
	<path style="fill:#231F20;" d="M149.654,195.495c0-4.142-3.357-7.5-7.5-7.5l-78.262-0.001l12.527-12.528
		c1.406-1.406,2.197-3.314,2.197-5.303c0-1.989-0.791-3.897-2.197-5.303l-14.143-14.143c-2.93-2.929-7.678-2.929-10.607,0
		L2.197,200.191c-2.93,2.929-2.93,7.678,0,10.606l49.473,49.474c1.465,1.464,3.385,2.197,5.305,2.197
		c1.918,0,3.838-0.732,5.303-2.197l14.143-14.143c1.406-1.406,2.197-3.314,2.197-5.303c0-1.989-0.791-3.897-2.197-5.303
		l-12.527-12.527l78.262,0.001c1.99,0,3.896-0.79,5.305-2.197c1.406-1.406,2.195-3.314,2.195-5.303V195.495z"/>
	<path style="fill:#231F20;" d="M408.791,200.191l-49.473-49.474c-2.93-2.929-7.678-2.929-10.607,0l-14.143,14.143
		c-1.406,1.406-2.197,3.314-2.197,5.303c0,1.989,0.791,3.897,2.197,5.303l12.527,12.528l-78.262,0.001c-4.143,0-7.5,3.358-7.5,7.5
		v20c0,1.989,0.789,3.897,2.195,5.303c1.408,1.407,3.314,2.197,5.305,2.197l78.262-0.001l-12.527,12.527
		c-1.406,1.406-2.197,3.314-2.197,5.303c0,1.989,0.791,3.897,2.197,5.303l14.143,14.143c1.465,1.464,3.385,2.197,5.303,2.197
		c1.92,0,3.84-0.732,5.305-2.197l49.473-49.474C411.721,207.869,411.721,203.12,408.791,200.191z"/>
	<path style="fill:#231F20;" d="M164.859,76.42c1.406,1.406,3.314,2.197,5.305,2.197c1.988,0,3.896-0.791,5.303-2.197l12.527-12.527
		v78.262c0,1.99,0.789,3.896,2.195,5.305c1.406,1.406,3.315,2.195,5.305,2.195h20c4.141,0,7.5-3.357,7.5-7.5V63.893l12.527,12.527
		c1.406,1.406,3.314,2.197,5.305,2.197c1.988,0,3.896-0.791,5.303-2.197l14.143-14.143c2.928-2.93,2.928-7.678,0-10.607
		L210.797,2.197c-2.928-2.93-7.678-2.93-10.605,0L150.717,51.67c-1.463,1.465-2.195,3.385-2.195,5.305
		c0,1.918,0.733,3.838,2.195,5.303L164.859,76.42z"/>
	<path style="fill:#231F20;" d="M246.129,334.568c-1.406-1.406-3.315-2.197-5.303-2.197c-1.99,0-3.898,0.791-5.305,2.197
		l-12.527,12.527v-78.262c0-4.143-3.359-7.5-7.5-7.5h-20c-1.99,0-3.898,0.789-5.305,2.195c-1.406,1.408-2.195,3.314-2.195,5.305
		v78.262l-12.527-12.527c-1.406-1.406-3.314-2.197-5.303-2.197c-1.99,0-3.898,0.791-5.305,2.197l-14.143,14.143
		c-1.463,1.465-2.195,3.385-2.195,5.303c0,1.92,0.733,3.84,2.195,5.305l49.475,49.473c2.928,2.93,7.678,2.93,10.605,0l49.475-49.473
		c2.928-2.93,2.928-7.678,0-10.607L246.129,334.568z"/>
</g>
</svg>
