<?xml version="1.0" encoding="iso-8859-1"?>
<!-- Generator: Adobe Illustrator 19.0.0, SVG Export Plug-In . SVG Version: 6.00 Build 0)  -->
<svg version="1.1" id="Layer_1" xmlns="http://www.w3.org/2000/svg" xmlns:xlink="http://www.w3.org/1999/xlink" x="0px" y="0px"
	 viewBox="0 0 512 512" style="enable-background:new 0 0 512 512;" xml:space="preserve">
<g>
	<g>
		<g>
			<path d="M153.856,245.393c-0.64,2.551-0.068,5.257,1.553,7.322c1.613,2.074,4.096,3.285,6.724,3.285
				c1.374,0,3.072,0.631,4.77,1.545c-13.483,19.345-11.93,45.884,4.659,79.07c1.357,2.705,4.036,4.497,7.057,4.702
				c3.004,0.188,5.914-1.203,7.62-3.695c5.879-8.576,11.639-15.104,16.572-19.908c2.33,13.773,11.742,32.896,39.194,55.774
				c1.57,1.314,3.507,1.98,5.461,1.98c1.57,0,3.14-0.427,4.54-1.306c3.123-1.963,4.634-5.717,3.738-9.301
				c-6.554-26.197,3.891-32.836,4.07-32.956c4.216-2.116,5.931-7.236,3.823-11.452c-2.108-4.207-7.228-5.931-11.452-3.814
				c-0.725,0.358-13.815,7.211-15.454,28.416c-24.303-26.761-16.29-41.651-16.299-41.651c2.159-3.234,1.852-7.518-0.734-10.419
				c-2.594-2.901-6.801-3.678-10.266-1.903c-0.64,0.324-13.346,7.006-28.356,25.071c-9.472-24.107-8.09-41.83,4.13-53.931
				c3.337-3.311,3.371-8.695,0.077-12.049c-0.742-0.759-5.487-5.436-12.023-8.516c9.446-19.294,31.027-19.78,32.017-19.789
				c3.456,0,6.579-2.091,7.893-5.299c1.314-3.209,0.555-6.886-1.911-9.31c-4.531-4.471-8.858-11.494-8.482-13.491
				c2.918-2.918,11.307-0.435,15.113,1.519c2.449,1.289,5.376,1.306,7.859,0.051c2.466-1.263,4.173-3.644,4.565-6.391
				c1.152-8.055,5.444-18.278,8.619-18.278c6.187,0,8.713,10.283,8.73,10.325c0.845,3.934,4.318,6.741,8.337,6.741h25.6
				c9.446,0,22.033,14.814,29.551,23.663c2.722,3.2,5.111,6.007,7.083,7.97c4.514,4.514,9.993,5.888,14.387,6.989
				c6.699,1.673,8.713,2.176,8.713,12.578c0,8.533-2.458,8.533-8.994,8.533c-0.751-0.009-1.946-0.179-3.456-0.358
				c-9.847-1.126-28.194-3.277-39.27,6.579c-3.652,3.26-8.013,9.259-8.013,19.379c0,15.992,13.926,22.69,25.6,24.806v14.78
				c-11.554-4.241-30.43-12.954-44.996-28.373c-3.234-3.43-8.636-3.584-12.058-0.35c-3.43,3.234-3.584,8.636-0.35,12.066
				c25.941,27.469,62.456,36.224,64,36.582c2.534,0.58,5.205-0.008,7.245-1.63c2.039-1.613,3.226-4.079,3.226-6.682v-34.133
				c0-4.693-3.814-8.499-8.508-8.533c-0.171,0-17.092-0.478-17.092-8.533c0-4.113,1.306-5.751,2.295-6.622
				c5.359-4.779,19.78-3.098,25.941-2.381c2.406,0.282,4.292,0.469,5.419,0.469c17.306,0,26.078-8.61,26.078-25.6
				c0-23.731-13.542-27.119-21.632-29.141c-2.842-0.708-5.291-1.323-6.468-2.492c-1.707-1.707-3.772-4.164-6.144-6.946
				c-10.641-12.527-25.216-29.687-42.556-29.687h-19.456c-3.558-8.141-10.846-17.067-23.211-17.067
				c-13.449,0-20.087,13.099-23.159,22.852c-8.175-1.937-18.065-1.758-25.062,5.248c-3.251,3.251-4.958,7.45-4.941,12.134
				c0.017,4.719,1.843,9.412,4.164,13.491C175.846,211.738,159.548,222.626,153.856,245.393z"/>
			<path d="M469.333,0c-13.338,0-25.941,6.434-33.954,17.067H76.621C68.608,6.434,56.004,0,42.667,0C19.14,0,0,19.14,0,42.667
				c0,23.526,19.14,42.667,42.667,42.667c13.338,0,25.941-6.434,33.954-17.067h306.671c4.71,0,8.533-3.823,8.533-8.533
				s-3.823-8.533-8.533-8.533H72.064c-3.038,0-5.845,1.613-7.373,4.241c-4.676,8.03-12.911,12.826-22.025,12.826
				c-14.114,0-25.6-11.486-25.6-25.6s11.486-25.6,25.6-25.6c9.114,0,17.348,4.796,22.025,12.826
				c1.527,2.628,4.335,4.241,7.373,4.241h367.872c3.038,0,5.845-1.613,7.373-4.241c4.676-8.03,12.911-12.826,22.025-12.826
				c14.114,0,25.6,11.486,25.6,25.6s-11.486,25.6-25.6,25.6c-9.114,0-17.348-4.796-22.025-12.826
				c-1.527-2.628-4.335-4.241-7.373-4.241h-21.803c-4.71,0-8.533,3.823-8.533,8.533v378.052l-145.067,53.436v-90.155
				c0-4.71-3.823-8.533-8.533-8.533s-8.533,3.823-8.533,8.533v90.155L102.4,437.786V93.867c0-4.71-3.823-8.533-8.533-8.533
				c-4.71,0-8.533,3.823-8.533,8.533v349.867c0,3.576,2.227,6.767,5.581,8.013l162.133,59.725c0.956,0.35,1.954,0.529,2.953,0.529
				s1.997-0.179,2.953-0.529l162.133-59.725c3.354-1.246,5.581-4.437,5.581-8.013V68.267h8.713
				c8.013,10.633,20.617,17.067,33.954,17.067c23.526,0,42.667-19.14,42.667-42.667C512,19.14,492.86,0,469.333,0z"/>
			<path d="M290.389,213.333c0-4.71-3.814-8.533-8.533-8.533h-0.085c-4.71,0-8.491,3.823-8.491,8.533
				c0,4.71,3.866,8.533,8.576,8.533C286.575,221.867,290.389,218.044,290.389,213.333z"/>
			<path d="M264.533,128V93.867c0-4.71-3.823-8.533-8.533-8.533s-8.533,3.823-8.533,8.533V128c0,4.71,3.823,8.533,8.533,8.533
				S264.533,132.71,264.533,128z"/>
		</g>
	</g>
</g>
</svg>
