<?xml version="1.0" encoding="iso-8859-1"?>
<!-- Generator: Adobe Illustrator 19.0.0, SVG Export Plug-In . SVG Version: 6.00 Build 0)  -->
<svg version="1.1" id="Capa_1" xmlns="http://www.w3.org/2000/svg" xmlns:xlink="http://www.w3.org/1999/xlink" x="0px" y="0px"
	 viewBox="0 0 512 512" style="enable-background:new 0 0 512 512;" xml:space="preserve">
<g>
	<g>
		<path d="M165.732,183.333c-0.13-0.64-0.32-1.27-0.57-1.87c-0.25-0.61-0.56-1.19-0.92-1.73c-0.37-0.55-0.79-1.06-1.25-1.52
			c-0.46-0.46-0.97-0.88-1.52-1.24c-0.54-0.36-1.12-0.67-1.72-0.92c-0.61-0.25-1.24-0.44-1.87-0.57c-1.29-0.26-2.62-0.26-3.91,0
			c-0.64,0.13-1.27,0.32-1.87,0.57c-0.61,0.25-1.19,0.56-1.73,0.92c-0.55,0.36-1.06,0.78-1.52,1.24c-0.46,0.46-0.88,0.97-1.24,1.52
			c-0.36,0.54-0.67,1.12-0.92,1.73c-0.25,0.6-0.44,1.23-0.57,1.87c-0.13,0.64-0.2,1.3-0.2,1.95c0,0.65,0.07,1.31,0.2,1.96
			c0.13,0.63,0.32,1.26,0.57,1.87c0.25,0.6,0.56,1.18,0.92,1.72c0.36,0.55,0.78,1.06,1.24,1.52s0.97,0.88,1.52,1.25
			c0.54,0.36,1.12,0.67,1.73,0.92c0.6,0.25,1.23,0.44,1.87,0.57s1.3,0.19,1.95,0.19s1.31-0.06,1.96-0.19
			c0.63-0.13,1.26-0.32,1.87-0.57c0.6-0.25,1.18-0.56,1.72-0.92c0.55-0.37,1.06-0.79,1.52-1.25c0.46-0.46,0.88-0.97,1.25-1.52
			c0.36-0.54,0.67-1.12,0.92-1.72c0.25-0.61,0.44-1.24,0.57-1.87c0.13-0.65,0.19-1.31,0.19-1.96S165.862,183.973,165.732,183.333z"
			/>
	</g>
</g>
<g>
	<g>
		<path d="M296.646,175.286H195.923c-5.523,0-10,4.477-10,10s4.477,10,10,10h100.722c5.523,0,10-4.477,10-10
			S302.168,175.286,296.646,175.286z"/>
	</g>
</g>
<g>
	<g>
		<path d="M364.982,408.239H215.989c-5.523,0-10,4.477-10,10c0,5.523,4.477,10,10,10h148.993c5.523,0,10-4.477,10-10
			C374.982,412.716,370.505,408.239,364.982,408.239z"/>
	</g>
</g>
<g>
	<g>
		<path d="M155.925,273.647c-16.708,0-30.302,13.593-30.302,30.302c0,16.708,13.593,30.302,30.302,30.302
			c16.708,0,30.302-13.593,30.302-30.302C186.227,287.241,172.634,273.647,155.925,273.647z M155.925,314.252
			c-5.681,0-10.302-4.622-10.302-10.302s4.622-10.302,10.302-10.302s10.302,4.622,10.302,10.302S161.606,314.252,155.925,314.252z"
			/>
	</g>
</g>
<g>
	<g>
		<path d="M281.01,235.937H133.723c-5.523,0-10,4.477-10,10c0,5.523,4.477,10,10,10H281.01c5.523,0,10-4.477,10-10
			C291.01,240.414,286.533,235.937,281.01,235.937z"/>
	</g>
</g>
<g>
	<g>
		<path d="M361.092,273.679c2.671,0.504,5.354,0.752,8.019,0.752c11.322,0,22.307-4.465,30.471-12.628l99.765-99.766
			c12.43-12.43,16.071-30.937,9.276-47.15l-7.846-18.715c-1.014-2.418-2.938-4.342-5.357-5.356l-18.715-7.845
			c-16.211-6.796-34.719-3.155-47.15,9.275l-68.466,68.466V93.761c-0.001-8.346-2.1-16.621-6.072-23.939
			c-8.798-16.177-25.696-26.228-44.1-26.228H55.508c-0.191,0-0.38,0.006-0.568,0.016c-0.163-0.009-0.326-0.015-0.491-0.016
			c-0.195-0.002-4.701-0.002-4.91-0.001C22.224,43.772,0,66.145,0,93.469v64.537c0,5.523,4.477,10,10,10h75.681v248.853
			c0,27.569,22.076,50.409,49.474,51.506c0.301,0.027,0.605,0.042,0.913,0.042h242.79c23.976,0,44.684-17.059,49.235-40.543
			c0.616-3.146,0.929-6.383,0.929-9.62c0-27.665-22.503-50.172-50.164-50.172h-17.766V273.68L361.092,273.679z M443.697,106.388
			c6.664-6.664,16.584-8.616,25.277-4.972l14.94,6.263l6.263,14.94c3.643,8.692,1.691,18.613-4.973,25.277L446.87,186.23h-27.366
			l26.505-26.505c3.905-3.905,3.905-10.237,0-14.142c-3.905-3.905-10.236-3.905-14.142,0l-92.221,92.221l-2.082-11.018
			c-1.42-7.513,0.96-15.226,6.367-20.633L443.697,106.388z M85.682,148.006H19.999V93.468c0-16.367,13.31-29.77,29.648-29.875
			c0.289-0.001,4.341-0.001,4.67,0h0.058c0.19,0,0.379-0.006,0.567-0.016c0.188,0.01,0.377,0.016,0.568,0.016
			c11.07,0,21.237,6.048,26.527,15.776c2.418,4.455,3.645,9.298,3.646,14.392V148.006z M99.608,69.822
			c-1.192-2.192-2.533-4.271-4.006-6.229h215.316v0.001c11.07,0,21.237,6.048,26.527,15.776c2.418,4.455,3.646,9.298,3.646,14.394
			v13.994H105.68V93.761C105.679,85.416,103.58,77.14,99.608,69.822z M136.651,448.401c-17.086-0.306-30.971-14.437-30.971-31.542
			V127.758h235.411v52.953l-11.301,11.301c-10.086,10.086-14.525,24.475-11.876,38.489l4.615,24.422L283.5,293.952h-67.511
			c-5.523,0-10,4.477-10,10c0,5.523,4.477,10,10,10h69.497c0.366,0,0.727-0.02,1.082-0.058c0.358,0.039,0.717,0.058,1.076,0.058
			c2.559,0,5.119-0.976,7.071-2.929l41.956-41.956l4.421,0.836v98.169H136.069c-5.522,0-10,4.477-10,9.999s4.475,10,9.998,10
			c16.63,0.004,30.161,13.537,30.161,30.168C166.228,434.673,153.014,448.082,136.651,448.401z M378.857,388.071
			c16.632-0.001,30.164,13.534,30.164,30.172c0,1.95-0.187,3.894-0.56,5.796c-2.736,14.12-15.187,24.369-29.605,24.369
			l-202.739-0.001c6.343-8.402,10.109-18.854,10.109-30.168c0-11.314-3.766-21.766-10.11-30.168H378.857z M353.789,251.947
			l45.718-45.718h27.366l-41.432,41.432c-5.407,5.407-13.117,7.787-20.634,6.368L353.789,251.947z"/>
	</g>
</g>
</svg>
