<?xml version="1.0" encoding="iso-8859-1"?>
<!-- Generator: Adobe Illustrator 19.0.0, SVG Export Plug-In . SVG Version: 6.00 Build 0)  -->
<svg version="1.1" id="Layer_1" xmlns="http://www.w3.org/2000/svg" xmlns:xlink="http://www.w3.org/1999/xlink" x="0px" y="0px"
	 viewBox="0 0 512.011 512.011" style="enable-background:new 0 0 512.011 512.011;" xml:space="preserve">
<g>
	<g>
		<g>
			<path d="M187.739,221.868c-4.71,0-8.533,3.823-8.533,8.533c0,4.71,3.823,8.533,8.533,8.533h8.533c0,4.71,3.823,8.533,8.533,8.533
				s8.533-3.823,8.533-8.533h8.533c4.71,0,8.533-3.823,8.533-8.533c0-4.71-3.823-8.533-8.533-8.533H187.739z"/>
			<path d="M290.139,221.868c-4.71,0-8.533,3.823-8.533,8.533c0,4.71,3.823,8.533,8.533,8.533h8.533c0,4.71,3.823,8.533,8.533,8.533
				s8.533-3.823,8.533-8.533h8.533c4.71,0,8.533-3.823,8.533-8.533c0-4.71-3.823-8.533-8.533-8.533H290.139z"/>
			<path d="M119.472,66.689v112.512c0,4.71,3.823,8.533,8.533,8.533h221.867c4.71,0,8.533-3.823,8.533-8.533
				c0-4.71-3.823-8.533-8.533-8.533H136.539V75.684l63.531,42.351c3.755,2.509,8.832,1.638,11.563-1.98l44.373-59.17l44.373,59.17
				c2.722,3.627,7.808,4.489,11.563,1.98l63.531-42.351v103.518c0,4.71,3.823,8.533,8.533,8.533c4.71,0,8.533-3.823,8.533-8.533
				V66.698c9.916-3.541,17.067-12.919,17.067-24.03c0-14.114-11.486-25.6-25.6-25.6s-25.6,11.486-25.6,25.6
				c0,7.296,3.106,13.858,8.03,18.526l-57.25,38.161l-39.245-52.326c7.006-4.574,11.665-12.45,11.665-21.427
				c0-14.114-11.486-25.6-25.6-25.6s-25.6,11.486-25.6,25.6c0,8.977,4.659,16.853,11.665,21.427l-39.245,52.326l-57.25-38.161
				c4.924-4.668,8.03-11.23,8.03-18.526c0-14.114-11.486-25.6-25.6-25.6s-25.6,11.486-25.6,25.6
				C102.406,53.779,109.557,63.157,119.472,66.689z M384.006,34.135c4.702,0,8.533,3.831,8.533,8.533
				c0,4.702-3.831,8.533-8.533,8.533c-4.702,0-8.533-3.831-8.533-8.533C375.472,37.966,379.304,34.135,384.006,34.135z
				 M256.006,17.068c4.702,0,8.533,3.831,8.533,8.533s-3.831,8.533-8.533,8.533c-4.702,0-8.533-3.831-8.533-8.533
				S251.304,17.068,256.006,17.068z M128.006,34.135c4.702,0,8.533,3.831,8.533,8.533c0,4.702-3.831,8.533-8.533,8.533
				s-8.533-3.831-8.533-8.533C119.472,37.966,123.304,34.135,128.006,34.135z"/>
			<path d="M511.571,500.772c-8.482-25.412-30.831-49.118-31.778-50.116c-3.251-3.413-8.653-3.541-12.066-0.307
				c-3.413,3.251-3.55,8.653-0.307,12.066c0.205,0.213,20.668,21.914,27.955,43.75c1.195,3.575,4.531,5.845,8.098,5.845
				c0.896,0,1.801-0.154,2.697-0.444C510.64,510.073,513.064,505.243,511.571,500.772z"/>
			<path d="M456.087,427.573c-17.365-8.687-52.156-17.971-97.681-17.971c-4.71,0-8.533,3.823-8.533,8.533
				c0,4.71,3.823,8.533,8.533,8.533c33.024,0,59.998,5.231,77.397,11.059c-53.931,41.95-115.285,53.948-132.548,56.602
				c-18.884-24.311-43.46-32.725-44.553-33.092c-1.758-0.58-3.635-0.58-5.393,0c-1.092,0.367-25.668,8.781-44.552,33.092
				c-17.271-2.654-78.618-14.652-132.548-56.602c17.399-5.828,44.373-11.059,77.397-11.059c4.71,0,8.533-3.823,8.533-8.533
				c0-4.71-3.823-8.533-8.533-8.533c-45.525,0-80.316,9.284-97.681,17.971c-2.543,1.263-4.292,3.721-4.651,6.545
				c-0.358,2.816,0.708,5.632,2.842,7.501c69.521,60.834,154.086,69.982,157.653,70.34c3.055,0.307,6.101-1.075,7.868-3.627
				c12.621-18.176,29.833-26.974,36.386-29.824c6.562,2.825,23.637,11.52,36.352,29.824c1.604,2.313,4.233,3.669,7.006,3.669
				c0.29,0,0.572-0.009,0.862-0.043c3.567-0.358,88.132-9.506,157.653-70.34c2.133-1.869,3.2-4.685,2.842-7.501
				C460.379,431.293,458.63,428.836,456.087,427.573z"/>
			<path d="M256.262,494.935h-0.085c-4.71,0-8.491,3.823-8.491,8.533s3.857,8.533,8.576,8.533c4.71,0,8.533-3.823,8.533-8.533
				S260.972,494.935,256.262,494.935z"/>
			<path d="M247.472,341.335h17.067c4.71,0,8.533-3.823,8.533-8.533s-3.823-8.533-8.533-8.533h-17.067
				c-4.71,0-8.533,3.823-8.533,8.533S242.762,341.335,247.472,341.335z"/>
			<path d="M32.219,450.655c-0.947,0.998-23.296,24.704-31.778,50.116c-1.493,4.471,0.93,9.301,5.402,10.795
				c0.896,0.29,1.801,0.444,2.697,0.444c3.567,0,6.903-2.27,8.098-5.845c7.253-21.751,27.75-43.537,27.964-43.75
				c3.234-3.422,3.089-8.823-0.324-12.066C40.863,447.105,35.462,447.251,32.219,450.655z"/>
			<path d="M122.493,289.538l14.387,27.955c0.136,0.631,0.256,1.246,0.538,1.835c9.045,77.943,53.205,124.407,118.588,124.407
				c48.486,0,108.356-21.837,119.014-125.56l14.532-28.646c11.46-2.543,20.053-12.783,20.053-24.994v-17.067
				c0-12.023-6.699-21.163-17.067-24.363v-9.771c0-4.71-3.823-8.533-8.533-8.533c-4.71,0-8.533,3.823-8.533,8.533v17.067
				c0,4.71,3.823,8.533,8.533,8.533c5.666,0,8.533,2.867,8.533,8.533v17.067c0,4.702-3.831,8.533-8.533,8.533
				c-3.217,0-6.153,1.801-7.612,4.668l-16.811,33.143c-10.965,9.737-34.253,16.939-48.495,20.386
				c-7.014-20.591-23.04-41.131-55.083-41.131s-48.068,20.54-55.083,41.131c-14.046-3.396-36.898-10.453-48.043-19.994
				l-17.289-33.579c-1.459-2.833-4.386-4.625-7.586-4.625c-4.702,0-8.533-3.831-8.533-8.533v-17.067
				c0-5.265,3.268-8.533,8.533-8.533c4.71,0,8.533-3.823,8.533-8.533v-17.067c0-4.71-3.823-8.533-8.533-8.533
				s-8.533,3.823-8.533,8.533v9.882c-10.146,3.362-17.067,12.681-17.067,24.252v17.067
				C102.406,276.763,111.016,287.012,122.493,289.538z M197.023,347.897c-0.503,3.763-0.751,7.33-0.751,10.505
				c0,4.702,3.806,8.516,8.516,8.525h0.017c4.693,0,8.516-3.806,8.533-8.508c0.009-2.091,0.717-51.217,42.667-51.217
				c41.95,0,42.658,49.126,42.667,51.2c0,4.71,3.823,8.533,8.533,8.533s8.533-3.823,8.533-8.533c0-3.174-0.247-6.741-0.751-10.505
				c9.907-2.355,26.445-6.955,40.559-14.14c-10.965,61.602-44.331,92.911-99.541,92.911c-51.115,0-87.083-34.287-98.927-92.612
				C171.065,341.062,187.261,345.576,197.023,347.897z"/>
		</g>
	</g>
</g>
</svg>
