<?xml version="1.0" encoding="iso-8859-1"?>
<!-- Generator: Adobe Illustrator 18.0.0, SVG Export Plug-In . SVG Version: 6.00 Build 0)  -->
<!DOCTYPE svg PUBLIC "-//W3C//DTD SVG 1.1//EN" "http://www.w3.org/Graphics/SVG/1.1/DTD/svg11.dtd">
<svg version="1.1" id="Capa_1" xmlns="http://www.w3.org/2000/svg" xmlns:xlink="http://www.w3.org/1999/xlink" x="0px" y="0px"
	 viewBox="0 0 417 417" style="enable-background:new 0 0 417 417;" xml:space="preserve">
<path d="M208.5,0C116.649,0,41.924,74.726,41.924,166.576V411.5c0,3.038,2.463,5.5,5.5,5.5h322.152c3.037,0,5.5-2.462,5.5-5.5
	V166.576C375.076,74.726,300.351,0,208.5,0z M325.076,269.538h39V356h-39V269.538z M325.076,258.538v-86.462h39v86.462H325.076z
	 M324.943,161.076c-1.307-28.005-12.538-53.458-30.253-72.913l27.58-27.58c24.753,26.551,40.345,61.74,41.698,100.493H324.943z
	 M52.924,356v-86.462h39V356H52.924z M314.076,236.741c-6.444-0.704-10.263-2.764-14.553-5.082c-1.984-1.071-4.065-2.189-6.44-3.199
	L264.45,77.085c29.782,18.687,49.626,51.812,49.626,89.491V236.741z M151.541,77.719l-29.174,154.245
	c-0.188-0.101-0.375-0.202-0.564-0.304c-4.783-2.584-10.106-5.447-18.879-6.359v-58.725
	C102.924,129.323,122.319,96.516,151.541,77.719z M102.924,236.372c5.902,0.791,9.567,2.76,13.651,4.966
	c5.78,3.123,12.333,6.662,24.835,6.662c12.496,0,19.046-3.539,24.824-6.661c4.46-2.41,8.42-4.536,15.343-5.154v46.18
	c-9.802,0.698-15.488,3.765-20.571,6.512c-5.303,2.865-9.882,5.339-19.596,5.339c-9.721,0-14.303-2.475-19.607-5.34
	c-4.783-2.584-10.106-5.447-18.879-6.359V236.372z M181.577,225.149c-9.802,0.698-15.488,3.765-20.571,6.512
	c-5.303,2.865-9.882,5.339-19.596,5.339c-3.44,0-6.229-0.314-8.642-0.842l31.27-165.325c11.95-5.572,25.105-8.976,38.961-9.691V83
	h-8.145c-3.037,0-5.5,2.462-5.5,5.5v61.25h-19.904c-3.037,0-5.5,2.462-5.5,5.5V182.2c0,3.038,2.463,5.5,5.5,5.5h12.126V225.149z
	 M229.03,176.7h-41.953h-12.126V160.75h19.904h26.396h19.904V176.7H229.03z M215.752,149.75h-15.396V94h15.396V149.75z
	 M192.577,187.7h9.977v132.412l-9.977-13.189V187.7z M213.554,187.7h9.977v119.223l-9.977,13.189V187.7z M234.53,187.7h12.126
	c3.037,0,5.5-2.462,5.5-5.5V155.25c0-3.038-2.463-5.5-5.5-5.5h-19.904V88.5c0-3.038-2.463-5.5-5.5-5.5H214V61.142
	c13.479,0.695,26.298,3.93,37.986,9.234l29.318,154.993c-2.006-0.235-4.192-0.37-6.603-0.37c-12.501,0-19.053,3.539-24.834,6.661
	c-4.459,2.408-8.419,4.534-15.336,5.153V187.7z M286.912,80.385C267.458,62.671,242.004,51.441,214,50.133V11.108
	c38.752,1.354,73.941,16.946,100.492,41.698L286.912,80.385z M203,50.133c-28.004,1.307-53.458,12.538-72.913,30.253l-27.58-27.58
	C129.058,28.053,164.248,12.462,203,11.108V50.133z M122.31,88.164c-17.715,19.454-28.945,44.908-30.252,72.912H53.031
	c1.354-38.752,16.946-73.941,41.698-100.492L122.31,88.164z M91.924,172.076v86.462h-39v-86.462H91.924z M102.924,293.588
	c5.902,0.791,9.567,2.76,13.651,4.966c5.78,3.123,12.333,6.662,24.835,6.662c12.496,0,19.046-3.539,24.824-6.661
	c4.46-2.41,8.42-4.536,15.343-5.154v15.367c0,1.198,0.391,2.363,1.113,3.318l19.863,26.26V356h-99.63V293.588z M260,367v39H157v-39
	H260z M213.554,356v-17.654l19.863-26.26c0.723-0.955,1.113-2.12,1.113-3.318v-3.703c9.795-0.7,15.479-3.765,20.563-6.511
	c5.306-2.865,9.887-5.339,19.607-5.339c9.713,0,14.293,2.474,19.596,5.338c4.944,2.671,10.466,5.64,19.78,6.445V356H213.554z
	 M314.076,293.957c-6.444-0.704-10.263-2.764-14.553-5.082c-5.779-3.122-12.329-6.66-24.823-6.66
	c-12.501,0-19.053,3.539-24.834,6.661c-4.459,2.408-8.419,4.534-15.336,5.153V247.85c9.795-0.7,15.479-3.765,20.563-6.511
	c5.306-2.865,9.887-5.339,19.607-5.339c9.713,0,14.293,2.474,19.596,5.338c4.944,2.671,10.466,5.64,19.78,6.445V293.957z
	 M52.924,367H146v39H52.924V367z M271,406v-39h93.076v39H271z"/>
</svg>
