<?xml version="1.0" encoding="iso-8859-1"?>
<!-- Generator: Adobe Illustrator 19.0.0, SVG Export Plug-In . SVG Version: 6.00 Build 0)  -->
<svg version="1.1" id="Capa_1" xmlns="http://www.w3.org/2000/svg" xmlns:xlink="http://www.w3.org/1999/xlink" x="0px" y="0px"
	 viewBox="0 0 511.999 511.999" style="enable-background:new 0 0 511.999 511.999;" xml:space="preserve">
<g>
	<g>
		<path d="M117.999,394.077c-12.271,0-22.254,9.983-22.254,22.255c0,12.271,9.983,22.254,22.254,22.254s22.254-9.983,22.254-22.254
			S130.27,394.077,117.999,394.077z M117.999,423.586c-4,0-7.254-3.254-7.254-7.254s3.254-7.255,7.254-7.255
			s7.254,3.254,7.254,7.255C125.253,420.332,121.999,423.586,117.999,423.586z"/>
	</g>
</g>
<g>
	<g>
		<path d="M477.193,81.701c-20.918-20.917-48.697-33.228-78.221-34.664c-28.271-1.371-55.904,7.288-78.182,24.432l-5.617-0.644
			c-16.901-1.939-52.069-5.972-60.342-6.962c-12.024-1.44-24.275,2.162-33.609,9.883l-71.68,59.3
			c-11.542,9.549-19.752,22.236-23.743,36.692c-7.912,28.66-22.594,79.277-32.905,99.65l-31.459,31.459l-2.074-2.074
			c-3.301-3.301-7.691-5.12-12.36-5.12s-9.059,1.818-12.36,5.12l-29.53,29.53c-6.815,6.815-6.815,17.904,0,24.719l7.833,7.833
			c2.862,2.862,7.503,2.862,10.365,0s2.862-7.503,0-10.365l-7.833-7.833c-0.719-0.719-0.826-1.559-0.826-1.995
			c0-0.436,0.107-1.276,0.826-1.995l29.53-29.53c0.719-0.719,1.559-0.826,1.995-0.826c0.436,0,1.276,0.107,1.995,0.826l7.252,7.252
			c0.001,0.002,0.003,0.003,0.004,0.005l46.218,46.218l53.493,53.494c0.719,0.719,0.826,1.559,0.826,1.995
			c0,0.436-0.107,1.276-0.826,1.995l-29.53,29.53c-0.719,0.719-1.559,0.826-1.995,0.826c-0.436,0-1.276-0.107-1.995-0.826
			l-65.982-65.982c-2.862-2.862-7.503-2.862-10.365,0s-2.862,7.503,0,10.365l65.982,65.982c3.408,3.408,7.884,5.112,12.36,5.112
			s8.952-1.704,12.36-5.112l29.53-29.53c3.301-3.301,5.12-7.691,5.12-12.36s-1.818-9.059-5.12-12.36l-2.109-2.109l4.589-4.588
			c3.946-3.946,8.865-6.854,14.226-8.408c0.1-0.029,0.199-0.06,0.298-0.093l53.722-18.089c18.23-6.254,34.184-17.551,46.138-32.669
			l26.907-34.029l71.812-71.812c3.448,0.664,7.562,1.12,11.415,1.183v5.831c0,2.257,2.257,4.326,5.455,4.326
			c2.821,0,5.643-2.069,5.643-4.326v-6.395c20.314-2.821,34.233-15.612,34.233-38.748c0-25.581-17.869-33.857-34.233-39.876v-38.183
			c13.167,0.94,18.057,6.959,22.571,6.959c5.643,0,8.276-7.147,8.276-10.721c0-9.217-18.057-13.167-30.848-13.543v-5.079
			c0-2.257-2.821-4.326-5.643-4.326c-3.198,0-5.455,2.069-5.455,4.326v5.455c-17.869,1.881-35.738,11.286-35.738,34.986
			c0,24.076,18.81,30.848,35.738,36.867v14.536c-5.159-6.131-13.605-9.678-24.472-10.262c-24.849-1.351-59.178,12.496-78.171,31.49
			c-12.112,12.112-25.867,25.869-33.449,33.456c-2.351,2.352-5.5,3.647-8.865,3.647h-0.273c-5.055,0-12.042-5.468-13.959-10.73
			l-0.005-72.104l24.018-19.765l18.987-2.914c-3.728,16.9-3.746,34.489,0.018,51.489c0.757,3.418,3.787,5.746,7.149,5.746
			c0.524,0,1.057-0.057,1.591-0.175c3.952-0.875,6.446-4.788,5.571-8.74c-4.021-18.159-3.129-37.081,2.578-54.743
			c0.023-0.062,0.035-0.128,0.056-0.19c0.008-0.023,0.02-0.044,0.027-0.067c5.107-15.663,13.644-29.553,25.374-41.283
			c2.491-2.49,5.138-4.883,7.871-7.115c0.059-0.044,0.112-0.095,0.17-0.141c0.012-0.009,0.024-0.017,0.036-0.026
			c19.878-16.149,44.979-24.356,70.684-23.106c25.879,1.258,50.231,12.05,68.569,30.388c19.677,19.677,30.513,45.837,30.513,73.664
			c0,27.827-10.836,53.988-30.513,73.665c-25.943,25.944-64.162,36.372-99.739,27.213c-3.916-1.01-7.915,1.35-8.924,5.271
			c-1.009,3.92,1.351,7.915,5.271,8.924c9.73,2.505,19.73,3.757,29.731,3.757c10.21,0,20.421-1.305,30.341-3.915
			c20.241-5.325,38.806-16.005,53.685-30.885c22.443-22.452,34.804-52.294,34.804-84.036
			C511.999,133.988,499.638,104.146,477.193,81.701z M403.293,176.815c9.217,3.95,16.552,9.216,16.552,21.066
			c0,10.722-6.395,16.741-16.552,18.622V176.815z M376.396,133.929c0-9.781,7.523-14.483,18.057-15.8v34.233
			C384.484,148.601,376.396,144.651,376.396,133.929z M342.803,252.32l-6.886-6.885c-1.24-1.241-1.923-2.89-1.923-4.644
			c0-1.754,0.683-3.403,1.924-4.644l11.992-11.993c3.834-3.833,8.869-5.75,13.905-5.75c3.972,0,7.943,1.193,11.326,3.578
			L342.803,252.32z M281.683,124.503l-27.748,4.259c-1.303,0.2-2.527,0.747-3.545,1.585l-28.246,23.244
			c-1.692,1.392-2.672,3.468-2.672,5.659l0.005,76.67c0,0.638,0.083,1.274,0.248,1.89c3.184,11.929,16.441,22.392,28.369,22.392
			h0.273c7.283,0,14.113-2.821,19.233-7.944c7.582-7.586,21.335-21.342,33.446-33.453c16.128-16.127,46.188-28.33,67.019-27.218
			c4.755,0.256,11.072,1.366,14.16,5.2c0.165,0.205,0.34,0.4,0.526,0.585c1.554,1.554,5.763,5.772,0.387,13.8
			c-13.461-10.69-33.151-9.823-45.592,2.618l-11.992,11.992c-4.009,4.009-6.217,9.339-6.217,15.009
			c0,5.669,2.208,10.999,6.217,15.008l6.886,6.885l-33.007,33.007c-0.201,0.201-0.39,0.414-0.567,0.636l-27.171,34.364
			c-10.208,12.909-23.831,22.555-39.358,27.882l-53.54,18.028c-7.667,2.252-14.701,6.425-20.352,12.076l-4.588,4.588l-41.02-41.02
			l-41.038-41.034l32.268-32.268c0.523-0.523,0.964-1.122,1.308-1.777c10.967-20.903,26.357-73.836,34.553-103.528
			c3.187-11.544,9.743-21.676,18.957-29.299l71.68-59.3c6.254-5.174,14.461-7.589,22.522-6.623
			c7.266,0.87,35.091,4.066,53.272,6.152C295.445,96.212,287.164,109.614,281.683,124.503z"/>
	</g>
</g>
<g>
</g>
<g>
</g>
<g>
</g>
<g>
</g>
<g>
</g>
<g>
</g>
<g>
</g>
<g>
</g>
<g>
</g>
<g>
</g>
<g>
</g>
<g>
</g>
<g>
</g>
<g>
</g>
<g>
</g>
</svg>
