<?xml version="1.0" encoding="iso-8859-1"?>
<!-- Generator: Adobe Illustrator 19.0.0, SVG Export Plug-In . SVG Version: 6.00 Build 0)  -->
<svg version="1.1" id="Layer_1" xmlns="http://www.w3.org/2000/svg" xmlns:xlink="http://www.w3.org/1999/xlink" x="0px" y="0px"
	 viewBox="0 0 512 512" style="enable-background:new 0 0 512 512;" xml:space="preserve">
<g>
	<g>
		<path d="M476.062,211.48l-29.922-7.484l2.953-1.32l-35.922-81.969l-71.859-17.961L99.914,208.277L82.531,243.05l-45.492,19.883
			L0,337.035l125.781,36.125l125.781,36.094L512,293.441L476.062,211.48z M421.031,191.809L194.359,292.613l-11.57-57.844
			l215.164-95.633L421.031,191.809z M427.594,221.348L231.36,308.567l-12.383-3.562l195.508-86.93L427.594,221.348z
			 M343.188,125.199l21.5,5.375l-196.234,87.219l-22.359-6.422L343.188,125.199z M30.563,323.629l22.078-44.188l46.172,13.266
			l10.719,53.578L30.563,323.629z M107.742,273.067l-14.312-4.109l22.086-44.165l46.172,13.258l10.719,53.578l-62.422-17.906
			l0.023-0.578L107.742,273.067z M131.484,347.27l-9.586-47.953l35.664,10.25l-16.781,33.562L131.484,347.27z M156.336,359.722
			l22.078-44.156l46.18,13.25l10.719,53.594L156.336,359.722z M245.696,325.535L460.86,229.91l23.078,52.672L257.266,383.379
			L245.696,325.535z"/>
	</g>
</g>
<g>
</g>
<g>
</g>
<g>
</g>
<g>
</g>
<g>
</g>
<g>
</g>
<g>
</g>
<g>
</g>
<g>
</g>
<g>
</g>
<g>
</g>
<g>
</g>
<g>
</g>
<g>
</g>
<g>
</g>
</svg>
