<?xml version="1.0" encoding="iso-8859-1"?>
<!-- Generator: Adobe Illustrator 18.0.0, SVG Export Plug-In . SVG Version: 6.00 Build 0)  -->
<!DOCTYPE svg PUBLIC "-//W3C//DTD SVG 1.1//EN" "http://www.w3.org/Graphics/SVG/1.1/DTD/svg11.dtd">
<svg version="1.1" id="Capa_1" xmlns="http://www.w3.org/2000/svg" xmlns:xlink="http://www.w3.org/1999/xlink" x="0px" y="0px"
	 viewBox="0 0 399.794 399.794" style="enable-background:new 0 0 399.794 399.794;" xml:space="preserve">
<g>
	<path d="M144.572,215.223c-10.684,0-20.729,4.161-28.282,11.715c-7.556,7.555-11.716,17.599-11.716,28.283
		c0,10.684,4.16,20.729,11.715,28.283s17.6,11.715,28.283,11.715c10.685,0,20.729-4.161,28.283-11.715
		c15.595-15.595,15.595-40.971,0-56.566C165.3,219.383,155.257,215.223,144.572,215.223z M165.077,275.726L165.077,275.726
		c-5.477,5.477-12.759,8.494-20.505,8.494s-15.027-3.017-20.505-8.494c-5.477-5.477-8.493-12.759-8.493-20.505
		c0-7.746,3.017-15.027,8.494-20.504c5.477-5.478,12.758-8.494,20.504-8.494s15.028,3.017,20.505,8.494
		C176.383,246.022,176.383,264.419,165.077,275.726z"/>
	<path d="M213.511,167.282c-5.075,0-9.846,1.977-13.434,5.564c-3.589,3.588-5.565,8.36-5.565,13.435
		c0,5.075,1.977,9.846,5.565,13.435c3.703,3.704,8.568,5.555,13.434,5.555s9.73-1.852,13.435-5.555c0,0,0,0,0.001-0.001
		c7.407-7.408,7.407-19.461-0.001-26.869C223.357,169.259,218.587,167.282,213.511,167.282z M219.169,191.937
		c-3.118,3.119-8.193,3.12-11.313,0c-1.511-1.511-2.343-3.52-2.343-5.656c0-2.137,0.832-4.146,2.344-5.657
		c1.511-1.511,3.519-2.343,5.655-2.343s4.146,0.833,5.657,2.343C222.287,183.744,222.287,188.818,219.169,191.937z"/>
	<path d="M55.128,293.756c-2.146-2.147-5.631-2.147-7.777,0c-2.148,2.148-2.148,5.63,0,7.778l50.909,50.909
		c1.073,1.074,2.481,1.611,3.889,1.611s2.815-0.537,3.889-1.611c2.148-2.148,2.148-5.63,0-7.778L55.128,293.756z"/>
	<path d="M398.182,42.467L357.326,1.611c-2.146-2.147-5.631-2.147-7.777,0l-20.707,20.707l-8.033-8.033
		c-2.146-2.147-5.63-2.147-7.778,0c-2.147,2.148-2.147,5.63,0.001,7.778l8.033,8.032l-90.287,90.286
		c-20.181-8.663-44.256-10.941-70.46-6.354c-39.661,6.942-79.583,28.845-112.411,61.674C15.603,208.005-0.511,241.51,0.012,275.285
		c0.46,29.72,14.252,58.978,39.885,84.611s54.891,39.425,84.61,39.885c0.532,0.008,1.062,0.012,1.594,0.012
		c33.234,0,66.195-16.111,97.989-47.906c32.829-32.829,54.732-72.751,61.675-112.412c4.586-26.201,2.308-50.277-6.354-70.458
		l90.287-90.287l8.033,8.033c1.073,1.074,2.481,1.611,3.889,1.611s2.815-0.537,3.889-1.611c2.148-2.148,2.148-5.63,0-7.778
		l-8.033-8.033l20.707-20.707C400.331,48.098,400.331,44.615,398.182,42.467z M359.091,73.78l-33.078-33.078l14.495-14.495
		l33.078,33.078L359.091,73.78z M275.613,91.102l9.022-9.022l33.079,33.079l-9.022,9.022L275.613,91.102z M300.913,131.959
		l-9.022,9.022l-33.079-33.079l9.022-9.022L300.913,131.959z M292.413,74.302l9.022-9.022l33.078,33.078l-9.022,9.022
		L292.413,74.302z M309.213,57.502l9.023-9.022l33.078,33.078l-9.022,9.022L309.213,57.502z M216.313,344.109
		c-30.118,30.118-60.919,45.163-91.635,44.673c-26.805-0.415-53.433-13.093-77.004-36.665
		c-23.57-23.571-36.249-50.198-36.664-77.003c-0.475-30.686,14.556-61.516,44.673-91.634c39.544-39.544,88.282-60.77,130.208-60.77
		c25.917,0,49.237,8.118,66.156,25.036C296.332,192.032,280.301,280.12,216.313,344.109z M259.825,139.968
		c-5.616-5.616-11.883-10.409-18.7-14.379l9.909-9.909l33.079,33.079l-9.91,9.909C270.234,151.852,265.441,145.585,259.825,139.968z
		 M381.364,51.508l-33.078-33.078l5.151-5.151l33.078,33.078L381.364,51.508z"/>
</g>
</svg>
