<?xml version="1.0" encoding="iso-8859-1"?>
<!-- Generator: Adobe Illustrator 19.0.0, SVG Export Plug-In . SVG Version: 6.00 Build 0)  -->
<svg version="1.1" id="Layer_1" xmlns="http://www.w3.org/2000/svg" xmlns:xlink="http://www.w3.org/1999/xlink" x="0px" y="0px"
	 viewBox="0 0 512 512" style="enable-background:new 0 0 512 512;" xml:space="preserve">
<g>
	<g>
		<g>
			<path d="M108.587,426.334c2.492,0.717,61.867,17.399,147.413,17.399s144.922-16.683,147.413-17.399
				c2.278-0.648,4.19-2.219,5.265-4.335c1.075-2.108,1.22-4.574,0.401-6.81l-71.202-193.92l20.318-91.418
				c1.024-4.599-1.877-9.156-6.477-10.18c-4.608-1.041-9.156,1.877-10.18,6.477l-34.133,153.6c-1.024,4.599,1.877,9.156,6.477,10.18
				c0.623,0.136,1.246,0.205,1.86,0.205c3.908,0,7.441-2.705,8.32-6.682l6.963-31.334l58.761,160.051
				c-19.516,4.565-69.393,14.498-133.786,14.498c-65.647,0-116.378-10.368-134.997-14.788l10.991-51.302
				c18.202,4.855,62.165,14.891,115.473,14.891c65.067,0,93.756-12.476,94.942-13.005c4.292-1.92,6.212-6.929,4.318-11.23
				c-1.894-4.292-6.921-6.229-11.238-4.378c-0.264,0.119-27.179,11.546-88.021,11.546c-51.712,0-95.164-10.095-111.881-14.566
				l34.415-160.631L313.412,22.921c6.281-6.69,11.708-8.576,22.34,0.606c0.273,0.23,0.555,0.444,0.845,0.64L438.75,92.254
				c4.147,2.995,5.555,6.468,4.804,8.346c-0.666,1.63-3.541,2.381-7.142,1.886L316.945,85.419c-4.693-0.691-8.994,2.577-9.66,7.236
				c-0.666,4.668,2.577,8.994,7.236,9.66l119.484,17.067c11.708,1.673,21.675-3.209,25.378-12.407
				c3.9-9.685-0.384-21.163-10.914-28.74L346.496,10.249c-20.48-17.399-36.045-9.105-45.653,1.126L155.776,173.508
				c-0.99,1.109-1.673,2.458-1.988,3.908l-51.2,238.933C101.649,420.736,104.269,425.105,108.587,426.334z"/>
			<path d="M486.4,51.2c0,4.71,3.823,8.533,8.533,8.533s8.533-3.823,8.533-8.533c4.71,0,8.533-3.823,8.533-8.533
				c0-4.71-3.823-8.533-8.533-8.533c0-4.71-3.823-8.533-8.533-8.533s-8.533,3.823-8.533,8.533c-4.71,0-8.533,3.823-8.533,8.533
				C477.867,47.377,481.69,51.2,486.4,51.2z"/>
			<path d="M460.8,213.333c0-4.71-3.823-8.533-8.533-8.533c-4.71,0-8.533,3.823-8.533,8.533v8.533H435.2
				c-4.71,0-8.533,3.823-8.533,8.533s3.823,8.533,8.533,8.533h8.533v8.533c0,4.71,3.823,8.533,8.533,8.533
				c4.71,0,8.533-3.823,8.533-8.533v-8.533h8.533c4.71,0,8.533-3.823,8.533-8.533s-3.823-8.533-8.533-8.533H460.8V213.333z"/>
			<path d="M102.4,25.6c0,4.71,3.823,8.533,8.533,8.533s8.533-3.823,8.533-8.533c4.71,0,8.533-3.823,8.533-8.533
				s-3.823-8.533-8.533-8.533c0-4.71-3.823-8.533-8.533-8.533S102.4,3.823,102.4,8.533c-4.71,0-8.533,3.823-8.533,8.533
				S97.69,25.6,102.4,25.6z"/>
			<path d="M420.301,359.296c-4.565-1.143-9.208,1.596-10.368,6.17c-1.169,4.565,1.596,9.207,6.161,10.368
				c50.108,12.749,78.839,31.275,78.839,50.833c0,37.641-107.187,68.267-238.933,68.267S17.067,464.307,17.067,426.667
				c0-19.149,26.342-36.77,74.18-49.613c4.557-1.229,7.245-5.905,6.025-10.462c-1.22-4.548-5.888-7.236-10.453-6.025
				C29.21,376.038,0,398.276,0,426.667C0,485.299,132.702,512,256,512s256-26.701,256-85.333
				C512,397.858,480.29,374.562,420.301,359.296z"/>
			<path d="M8.533,128h8.533v8.533c0,4.71,3.823,8.533,8.533,8.533c4.71,0,8.533-3.823,8.533-8.533V128h8.533
				c4.71,0,8.533-3.823,8.533-8.533s-3.823-8.533-8.533-8.533h-8.533V102.4c0-4.71-3.823-8.533-8.533-8.533
				c-4.71,0-8.533,3.823-8.533,8.533v8.533H8.533c-4.71,0-8.533,3.823-8.533,8.533S3.823,128,8.533,128z"/>
			<path d="M85.333,221.867c0,4.71,3.823,8.533,8.533,8.533c4.71,0,8.533-3.823,8.533-8.533c4.71,0,8.533-3.823,8.533-8.533
				c0-4.71-3.823-8.533-8.533-8.533c0-4.71-3.823-8.533-8.533-8.533c-4.71,0-8.533,3.823-8.533,8.533
				c-4.71,0-8.533,3.823-8.533,8.533C76.8,218.044,80.623,221.867,85.333,221.867z"/>
		</g>
	</g>
</g>
</svg>
