<svg viewBox="1 0 511.99902 511" xmlns="http://www.w3.org/2000/svg"><path d="m181.40625 184.816406 63.070312 19.605469-231.304687 231.308594c-17.535156 17.53125-17.535156 46.0625 0 63.597656s46.0625 17.535156 63.597656 0l231.308594-231.308594 19.605469 63.074219 67.46875-95.410156 116.847656 1.492187-69.890625-93.648437 37.53125-110.667969-110.667969 37.527344-93.652344-69.886719 1.496094 116.84375zm-125.835938 293.3125c-5.84375 5.84375-15.351562 5.84375-21.199218 0-5.84375-5.84375-5.84375-15.355468 0-21.199218l116.597656-116.597657 21.199219 21.199219zm137.796876-137.796875-21.199219-21.199219 104.65625-104.65625 16.171875 5.027344 5.027344 16.171875zm170.308593-236.488281 68.0625-23.082031-23.082031 68.0625 42.984375 57.597656-71.863281-.917969-41.496094 58.679688-21.335938-68.628906-68.628906-21.332032 58.679688-41.5-.917969-71.863281zm0 0"/><path d="m389.75 452.539062v-29.980468h29.980469v-29.980469h-29.980469v-29.980469h-29.980469v29.980469h-29.980469v29.980469h29.980469v29.980468zm0 0"/><path d="m149.902344 122.75h29.980468v-29.980469h29.980469v-29.980469h-29.980469v-29.980468h-29.980468v29.980468h-29.980469v29.980469h29.980469zm0 0"/><path d="m44.972656 242.671875c24.796875 0 44.96875-20.171875 44.96875-44.96875s-20.171875-44.972656-44.96875-44.972656-44.972656 20.175781-44.972656 44.972656 20.175781 44.96875 44.972656 44.96875zm0-59.960937c8.265625 0 14.988282 6.726562 14.988282 14.992187s-6.722657 14.988281-14.988282 14.988281-14.992187-6.722656-14.992187-14.988281 6.726562-14.992187 14.992187-14.992187zm0 0"/></svg>