<?xml version="1.0" encoding="iso-8859-1"?>
<!-- Generator: Adobe Illustrator 19.0.0, SVG Export Plug-In . SVG Version: 6.00 Build 0)  -->
<svg version="1.1" id="Capa_1" xmlns="http://www.w3.org/2000/svg" xmlns:xlink="http://www.w3.org/1999/xlink" x="0px" y="0px"
	 viewBox="0 0 370.88 370.88" style="enable-background:new 0 0 370.88 370.88;" xml:space="preserve">
<g>
	<g>
		<path d="M355.6,66.16H15.28C6.841,66.16,0,73.001,0,81.44v208c0,8.439,6.841,15.28,15.28,15.28H355.6
			c8.439,0,15.28-6.841,15.28-15.28v-208C370.88,73.001,364.039,66.16,355.6,66.16z M15.28,78.16H355.6
			c1.436,0.007,2.7,0.947,3.12,2.32L185.44,188.72L12.16,80.48C12.58,79.107,13.844,78.167,15.28,78.16z M12,94.16L136.64,172
			L12,270.88V94.16z M358.88,289.36c0,1.812-1.469,3.28-3.28,3.28H15.28c-1.811,0-3.28-1.469-3.28-3.28v-3.2l135.44-107.04
			l34.8,21.76c1.955,1.233,4.445,1.233,6.4,0l34.8-21.76l135.44,107.04V289.36z M358.88,270.88l-124.96-98.56l124.96-77.44V270.88z"
			/>
	</g>
</g>
</svg>
