<?xml version="1.0" encoding="iso-8859-1"?>
<!-- Generator: Adobe Illustrator 19.0.0, SVG Export Plug-In . SVG Version: 6.00 Build 0)  -->
<svg version="1.1" id="Capa_1" xmlns="http://www.w3.org/2000/svg" xmlns:xlink="http://www.w3.org/1999/xlink" x="0px" y="0px"
	 viewBox="0 0 512 512" style="enable-background:new 0 0 512 512;" xml:space="preserve">
<g>
	<g>
		<path d="M120,0C95.186,0,75,21.186,75,46c0,24.814,20.186,45,45,45s45-20.186,45-45C165,21.186,144.814,0,120,0z"/>
	</g>
</g>
<g>
	<g>
		<path d="M240,212c16.538,0,30-13.462,30-30c0-16.538-13.462-30-30-30h-86.455l-21.709-44.418C117.583,79.076,75,92.106,75,122
			v150.835c0,10.21,7.676,23.335,20.508,27.627l75.762,25.269l25.283,75.776c5.178,15.61,22.073,24.269,37.939,18.955
			c15.606-5.211,24.219-22.147,18.97-37.954l-30-90c-2.974-8.906-10.063-15.996-18.97-18.97L135,250.379V212H240z"/>
	</g>
</g>
<g>
	<g>
		<path d="M507.606,246.395l-29.982-29.982c-5.852-5.867-15.419-5.843-21.248,0l-29.982,29.982c-5.859,5.859-5.859,15.352,0,21.211
			s15.352,5.859,21.211,0l4.395-4.395V362H315c-8.291,0-15,6.709-15,15v45H165c-8.291,0-15,6.709-15,15v45H15
			c-8.291,0-15,6.709-15,15c0,8.291,6.709,15,15,15h150c8.291,0,15-6.709,15-15v-45h135c8.291,0,15-6.709,15-15v-45h137
			c8.291,0,15-6.709,15-15V263.211l4.395,4.395c5.859,5.859,15.352,5.859,21.211,0C513.465,261.747,513.465,252.254,507.606,246.395
			z"/>
	</g>
</g>
<g>
	<g>
		<path d="M86.015,328.923c-7.13-2.386-13.365-6.489-19.03-11.29L45.41,447.078c-2.677,15.978,8.038,31.727,24.712,34.526
			c16.126,2.736,31.712-8.117,34.468-24.668l19.233-115.404L86.015,328.923z"/>
	</g>
</g>
<g>
	<g>
		<path d="M8.789,160.789c-11.689,11.689-11.689,30.732,0,42.422L45,239.411V124.578L8.789,160.789z"/>
	</g>
</g>
</svg>
