<?xml version="1.0" encoding="iso-8859-1"?>
<!-- Generator: Adobe Illustrator 19.0.0, SVG Export Plug-In . SVG Version: 6.00 Build 0)  -->
<svg version="1.1" id="Capa_1" xmlns="http://www.w3.org/2000/svg" xmlns:xlink="http://www.w3.org/1999/xlink" x="0px" y="0px"
	 viewBox="0 0 512 512" style="enable-background:new 0 0 512 512;" xml:space="preserve">
<g>
	<g>
		<path d="M308.766,386.712h-77.055c-5.523,0-10,4.478-10,10c0,5.522,4.477,10,10,10h77.055c5.523,0,10-4.478,10-10
			C318.766,391.19,314.289,386.712,308.766,386.712z"/>
	</g>
</g>
<g>
	<g>
		<path d="M347.466,209.209c-0.002-0.026-0.005-0.054-0.007-0.08l-5.416-58.791c-0.366-3.968-3.052-7.341-6.838-8.584
			c-10.624-3.487-19.377,7.038-23.728,13.078c-1.839-3.604-3.925-7.505-6.187-11.426c-12.917-22.388-23.727-32.372-35.051-32.372
			c-11.324,0-22.134,9.984-35.051,32.372c-2.262,3.921-4.348,7.822-6.187,11.426c-4.351-6.04-13.105-16.568-23.728-13.078
			c-3.786,1.243-6.472,4.616-6.838,8.584l-5.423,58.871c-1.701,20.259,5.113,40.555,18.696,55.683l3.415,3.804
			c14.748,16.425,34.486,17.785,55.115,17.785c20.629,0,40.367-1.36,55.116-17.784l3.416-3.805
			C342.353,249.764,349.167,229.468,347.466,209.209z M313.887,251.53l-3.416,3.805c-9.271,10.326-23.108,11.146-40.233,11.146
			s-30.962-0.82-40.233-11.146l-3.415-3.804c-9.915-11.044-14.89-25.859-13.655-40.567l3.583-38.894
			c1.672,2.645,3.329,5.5,4.776,8.297c1.781,3.445,5.374,5.54,9.27,5.399c3.876-0.15,7.316-2.529,8.826-6.101
			c0.052-0.123,5.258-12.393,12.328-24.877c11.004-19.432,17.165-23.067,18.519-23.668c1.354,0.601,7.515,4.236,18.519,23.668
			c7.07,12.484,12.276,24.754,12.327,24.874c1.508,3.574,4.946,5.951,8.821,6.103c3.891,0.151,7.49-1.952,9.274-5.395
			c1.449-2.797,3.107-5.654,4.78-8.3l3.58,38.854C328.767,225.698,323.792,240.498,313.887,251.53z"/>
	</g>
</g>
<g>
	<g>
		<path d="M277.248,182.512c-3.891-3.822-10.128-3.822-14.019,0c-6.22,6.112-37.246,37.717-37.246,59.714
			c0,24.402,19.853,44.255,44.255,44.255c24.403,0,44.255-19.852,44.256-44.255C314.494,220.229,283.468,188.624,277.248,182.512z
			 M270.238,266.482c-13.374,0-24.255-10.881-24.255-24.255c0-8.272,12.726-25.418,24.259-38.127
			c11.531,12.697,24.251,29.833,24.251,38.127C294.493,255.601,283.612,266.482,270.238,266.482z"/>
	</g>
</g>
<g>
	<g>
		<path d="M348.97,358.61c-0.13-0.63-0.32-1.26-0.57-1.869c-0.25-0.601-0.56-1.181-0.92-1.721c-0.36-0.55-0.78-1.06-1.24-1.52
			c-0.46-0.47-0.97-0.88-1.52-1.25c-0.54-0.36-1.12-0.67-1.73-0.92c-0.6-0.25-1.23-0.44-1.87-0.57c-1.29-0.26-2.62-0.26-3.91,0
			c-0.63,0.13-1.26,0.32-1.87,0.57c-0.6,0.25-1.18,0.56-1.72,0.92c-0.55,0.37-1.06,0.78-1.52,1.25c-0.46,0.46-0.88,0.97-1.25,1.52
			c-0.36,0.54-0.67,1.12-0.92,1.721c-0.25,0.609-0.44,1.239-0.57,1.869c-0.13,0.65-0.19,1.311-0.19,1.96c0,0.65,0.06,1.31,0.19,1.95
			c0.13,0.641,0.32,1.27,0.57,1.87c0.26,0.6,0.56,1.19,0.92,1.73c0.37,0.55,0.79,1.06,1.25,1.52c0.46,0.46,0.97,0.88,1.52,1.24
			c0.54,0.36,1.12,0.67,1.72,0.92c0.61,0.25,1.24,0.44,1.87,0.57c0.65,0.13,1.31,0.199,1.96,0.199c2.63,0,5.21-1.069,7.07-2.929
			c0.46-0.46,0.88-0.97,1.24-1.52c0.36-0.54,0.67-1.129,0.92-1.73c0.25-0.599,0.44-1.229,0.57-1.87c0.13-0.639,0.2-1.3,0.2-1.95
			C349.17,359.921,349.1,359.26,348.97,358.61z"/>
	</g>
</g>
<g>
	<g>
		<path d="M299.169,350.567h-97.861c-5.523,0-10,4.478-10,10c0,5.522,4.477,10,10,10h97.861c5.523,0,10-4.478,10-10
			C309.169,355.045,304.692,350.567,299.169,350.567z"/>
	</g>
</g>
<g>
	<g>
		<path d="M473.544,240.13h-20.003V10c0-5.522-4.477-10-10-10H69.713c-22.75,0-41.257,18.508-41.257,41.258v429.484
			c0,22.75,18.508,41.258,41.257,41.258h373.828c5.523,0,10-4.478,10-10V347h20.003c5.523,0,10-4.478,10-10v-86.87
			C483.544,244.607,479.067,240.13,473.544,240.13z M86.935,492H69.713c-11.721,0-21.257-9.536-21.257-21.258V41.258
			C48.456,29.536,57.992,20,69.713,20h17.222V492z M106.936,492V20h326.605v220.13H413.21V88.646c0-5.522-4.477-10-10-10
			c-15.613,0-28.314-12.702-28.314-28.314c0-5.522-4.477-10-10-10H175.581c-5.523,0-10,4.478-10,10
			c0,15.612-12.702,28.314-28.314,28.314c-5.523,0-10,4.478-10,10v334.709c0,5.522,4.477,10,10,10
			c15.613,0,28.314,12.702,28.314,28.314c0,5.522,4.477,10,10,10h189.314c5.523,0,10-4.478,10-10
			c0-15.612,12.702-28.314,28.314-28.314c5.523,0,10-4.478,10-10V347h20.331v145H106.936z M379.976,347h13.234v67.396
			c-18.631,3.937-33.337,18.643-37.274,37.273H184.541c-3.937-18.631-18.643-33.337-37.274-37.273V97.604
			c18.631-3.937,33.337-18.643,37.274-37.273h171.396c3.937,18.631,18.643,33.337,37.274,37.273V240.13h-13.234
			c-29.464,0-53.435,23.971-53.435,53.436C326.541,323.029,350.512,347,379.976,347z M463.544,327h-83.568
			c-18.436,0-33.435-14.999-33.435-33.435c0-18.437,14.999-33.436,33.435-33.436h83.568V327z"/>
	</g>
</g>
<g>
	<g>
		<path d="M383.469,266.898c-14.704,0-26.667,11.963-26.667,26.667s11.963,26.666,26.667,26.666
			c14.704,0,26.667-11.962,26.667-26.666S398.173,266.898,383.469,266.898z M383.469,300.231c-3.676,0-6.667-2.99-6.667-6.666
			c0-3.676,2.991-6.667,6.667-6.667c3.676,0,6.667,2.991,6.667,6.667C390.136,297.241,387.145,300.231,383.469,300.231z"/>
	</g>
</g>
</svg>
