<?xml version="1.0" encoding="iso-8859-1"?>
<!-- Generator: Adobe Illustrator 19.0.0, SVG Export Plug-In . SVG Version: 6.00 Build 0)  -->
<svg version="1.1" id="Layer_1" xmlns="http://www.w3.org/2000/svg" xmlns:xlink="http://www.w3.org/1999/xlink" x="0px" y="0px"
	 viewBox="0 0 511.974 511.974" style="enable-background:new 0 0 511.974 511.974;" xml:space="preserve">
<g>
	<g>
		<g>
			<path d="M125.423,215.808c-3.328-3.337-8.73-3.337-12.066,0c-25.899,25.899-25.899,54.434,0,80.333l23.868,23.868l-79.403,79.403
				l-8.866-8.798c-6.647-6.656-17.468-6.673-24.098-0.043L4.992,410.445c-6.656,6.647-6.656,17.476,0,24.132l72.397,72.405
				c3.328,3.328,7.706,4.992,12.075,4.992c4.369,0,8.747-1.664,12.066-4.992l19.866-19.857c3.482-3.482,5.163-8.346,4.625-13.346
				c-0.495-4.582-2.756-8.994-6.536-12.774l-6.912-6.878l79.386-79.377l23.799,23.791c26.283,26.274,54.05,26.274,80.333,0
				c3.336-3.337,3.336-8.73,0-12.066L125.423,215.808z M227.823,386.475l-29.833-29.833c-3.337-3.328-8.73-3.328-12.066,0
				l-85.436,85.444L87.04,428.698c-3.336-3.328-8.73-3.311-12.075,0.026c-3.328,3.337-3.311,8.738,0.026,12.066l32.435,32.299
				c1.263,1.254,1.587,2.202,1.86,2.014l-19.831,19.814l-72.397-72.405l19.857-19.806l14.925,14.814
				c3.328,3.302,8.721,3.294,12.041-0.026l85.41-85.41l15.343,15.334c3.337,3.337,8.73,3.337,12.066,0
				c3.336-3.337,3.336-8.738,0-12.066l-51.277-51.277c-17.289-17.289-19.2-32.922-5.717-49.843l157.969,157.961
				C260.753,405.666,245.12,403.763,227.823,386.475z"/>
			<path d="M511.428,5.598c-0.077-0.205-0.171-0.393-0.265-0.589c-0.418-0.922-0.939-1.792-1.673-2.526
				c-0.734-0.734-1.604-1.254-2.517-1.673c-0.205-0.094-0.393-0.188-0.597-0.265c-0.904-0.324-1.843-0.529-2.807-0.546
				c-0.145,0-0.273,0.034-0.418,0.043c-0.521,0.017-1.033,0.034-1.544,0.145l-153.6,34.133c-1.988,0.444-3.755,1.579-4.975,3.209
				l-153.6,204.8c-2.833,3.772-2.065,9.122,1.707,11.947c3.78,2.842,9.131,2.065,11.947-1.707L354.79,50.295l121.916-27.093
				L224.358,275.55c-3.337,3.337-3.337,8.73,0,12.066c1.664,1.664,3.849,2.5,6.033,2.5s4.369-0.836,6.033-2.5L488.764,35.277
				l-27.085,121.907L259.405,308.89c-3.772,2.825-4.54,8.175-1.707,11.947c1.681,2.236,4.233,3.413,6.835,3.413
				c1.784,0,3.576-0.555,5.112-1.707l204.8-153.6c1.63-1.22,2.773-2.987,3.217-4.975l34.133-153.6c0.111-0.521,0.12-1.05,0.137-1.57
				c0.009-0.128,0.043-0.256,0.043-0.384C511.957,7.45,511.761,6.502,511.428,5.598z"/>
		</g>
	</g>
</g>
</svg>
