<?xml version="1.0" encoding="iso-8859-1"?>
<!-- Generator: Adobe Illustrator 19.0.0, SVG Export Plug-In . SVG Version: 6.00 Build 0)  -->
<svg version="1.1" id="Capa_1" xmlns="http://www.w3.org/2000/svg" xmlns:xlink="http://www.w3.org/1999/xlink" x="0px" y="0px"
	 viewBox="0 0 511.998 511.998" style="enable-background:new 0 0 511.998 511.998;" xml:space="preserve">
<g>
	<g>
		<path d="M135.788,121.647c-3.9-3.91-10.24-3.91-14.14,0c-3.91,3.9-3.91,10.24,0,14.14c3.9,3.91,10.24,3.91,14.14,0
			C139.698,131.887,139.698,125.547,135.788,121.647z"/>
	</g>
</g>
<g>
	<g>
		<path d="M503.209,418.355c-5.667-5.665-13.199-8.786-21.211-8.786c-5.307,0-10.399,1.377-14.882,3.947
			c-1.483-3.422-3.608-6.575-6.327-9.301c-5.272-5.272-12.161-8.336-19.55-8.738c-0.403-7.383-3.467-14.27-8.735-19.538
			c-5.271-5.278-12.159-8.346-19.545-8.749c-0.402-7.397-3.469-14.287-8.739-19.545c-2.474-2.474-5.287-4.421-8.293-5.845
			l8.284-8.284c5.673-5.659,8.797-13.195,8.797-21.22c0-8.016-3.121-15.552-8.788-21.221c-5.667-5.666-13.201-8.786-21.217-8.786
			c-4.554,0-8.951,1.01-12.94,2.919l-29.212-29.212l146.928-146.928c1.325-1.326,2.251-2.997,2.673-4.823l21.21-91.92
			c0.009-0.04,0.011-0.08,0.02-0.12c0.078-0.362,0.142-0.727,0.18-1.094c0.002-0.02,0.007-0.041,0.009-0.061
			c0.037-0.379,0.046-0.76,0.04-1.14c-0.002-0.113-0.01-0.224-0.016-0.337c-0.014-0.279-0.039-0.556-0.076-0.833
			c-0.015-0.112-0.029-0.224-0.048-0.335c-0.056-0.335-0.128-0.667-0.219-0.995c-0.01-0.036-0.016-0.073-0.027-0.109
			c-0.109-0.377-0.242-0.748-0.396-1.112c-0.026-0.061-0.056-0.118-0.083-0.178c-0.13-0.292-0.274-0.578-0.434-0.859
			c-0.051-0.091-0.105-0.18-0.159-0.269c-0.153-0.251-0.319-0.496-0.497-0.736c-0.062-0.084-0.12-0.169-0.185-0.252
			c-0.242-0.307-0.498-0.605-0.781-0.888c-0.283-0.283-0.582-0.54-0.889-0.781c-0.082-0.064-0.167-0.122-0.25-0.184
			c-0.241-0.178-0.487-0.345-0.74-0.499c-0.087-0.053-0.175-0.105-0.264-0.156c-0.286-0.163-0.579-0.31-0.877-0.442
			c-0.053-0.024-0.105-0.051-0.159-0.074c-0.369-0.156-0.744-0.291-1.126-0.4c-0.021-0.006-0.043-0.01-0.064-0.016
			c-0.345-0.097-0.695-0.171-1.047-0.23c-0.1-0.017-0.2-0.03-0.301-0.043c-0.292-0.04-0.583-0.066-0.877-0.08
			c-0.101-0.005-0.201-0.013-0.302-0.014c-0.386-0.007-0.772,0.003-1.157,0.04c-0.008,0.001-0.016,0.003-0.024,0.004
			c-0.378,0.038-0.753,0.103-1.125,0.184c-0.039,0.009-0.079,0.01-0.118,0.02l-91.92,21.21c-1.826,0.421-3.498,1.348-4.823,2.673
			L255.998,171.144L108.988,24.135c-1.325-1.325-2.996-2.251-4.822-2.673l-91.92-21.21c-0.039-0.009-0.079-0.011-0.119-0.02
			c-0.376-0.082-0.755-0.148-1.136-0.186c-0.004,0-0.008-0.001-0.012-0.002c-0.386-0.038-0.774-0.047-1.161-0.041
			C9.719,0.007,9.621,0.014,9.522,0.019C9.227,0.033,8.932,0.06,8.639,0.1C8.54,0.114,8.441,0.126,8.342,0.143
			C7.988,0.202,7.636,0.277,7.288,0.375C7.269,0.38,7.25,0.383,7.231,0.389C6.849,0.499,6.473,0.634,6.103,0.79
			C6.051,0.812,6,0.838,5.949,0.861c-0.3,0.133-0.594,0.281-0.882,0.445c-0.087,0.049-0.172,0.1-0.258,0.153
			C4.553,1.614,4.304,1.783,4.06,1.963c-0.081,0.06-0.163,0.116-0.243,0.178C3.51,2.385,3.21,2.641,2.926,2.925
			c-0.283,0.283-0.54,0.583-0.782,0.89C2.08,3.896,2.023,3.981,1.961,4.064C1.784,4.304,1.617,4.549,1.464,4.8
			C1.409,4.89,1.355,4.981,1.303,5.073c-0.158,0.278-0.301,0.562-0.43,0.852c-0.028,0.062-0.06,0.123-0.086,0.186
			C0.634,6.474,0.501,6.843,0.393,7.218C0.381,7.258,0.374,7.3,0.363,7.34c-0.089,0.324-0.16,0.651-0.216,0.981
			C0.128,8.435,0.113,8.55,0.097,8.664C0.061,8.939,0.036,9.213,0.022,9.488c-0.006,0.116-0.015,0.23-0.017,0.346
			c-0.006,0.379,0.003,0.758,0.04,1.135c0.003,0.025,0.008,0.05,0.011,0.075c0.038,0.362,0.1,0.721,0.177,1.077
			c0.009,0.041,0.011,0.083,0.02,0.124l21.21,91.92c0.421,1.826,1.348,3.497,2.673,4.823l147.009,147.009l-29.208,29.208
			c-3.987-1.908-8.384-2.918-12.939-2.918c-8.017,0-15.553,3.121-21.221,8.789c-11.698,11.699-11.698,30.734,0,42.433l8.275,8.275
			c-3.028,1.451-5.823,3.418-8.274,5.863c-5.422,5.422-8.326,12.422-8.719,19.539c-7.385,0.399-14.279,3.468-19.562,8.75
			c-5.423,5.423-8.327,12.424-8.721,19.539c-7.406,0.396-14.306,3.466-19.569,8.742c-2.757,2.757-4.855,5.924-6.312,9.304
			c-4.483-2.575-9.581-3.953-14.896-3.953c-8.025,0-15.562,3.125-21.211,8.789C3.12,424.022,0,431.557,0,439.572
			s3.12,15.55,8.786,21.216l42.42,42.42c5.668,5.667,13.201,8.789,21.211,8.789c8.003,0,15.536-3.118,21.221-8.789
			c5.666-5.667,8.786-13.199,8.786-21.211c0-5.307-1.376-10.399-3.947-14.882c3.422-1.483,6.575-3.608,9.301-6.326
			c5.426-5.426,8.331-12.431,8.723-19.55c7.388-0.399,14.28-3.465,19.552-8.736c5.278-5.271,8.346-12.159,8.749-19.545
			c7.398-0.402,14.289-3.47,19.545-8.74c2.474-2.474,4.42-5.287,5.845-8.293l8.284,8.283c5.659,5.673,13.195,8.798,21.221,8.798
			c8.017,0,15.553-3.121,21.221-8.789c9.219-9.22,11.167-22.994,5.855-34.145l29.224-29.224l29.208,29.208
			c-1.909,3.987-2.918,8.384-2.918,12.94c0,8.018,3.122,15.554,8.789,21.221c5.666,5.666,13.2,8.787,21.216,8.787
			s15.55-3.12,21.217-8.787l8.275-8.275c1.451,3.028,3.418,5.824,5.862,8.275c5.422,5.422,12.422,8.324,19.539,8.718
			c0.399,7.385,3.469,14.279,8.751,19.562c5.271,5.27,12.156,8.333,19.539,8.737c0.4,7.4,3.469,14.293,8.741,19.553
			c2.757,2.757,5.924,4.855,9.304,6.313c-2.574,4.483-3.952,9.58-3.952,14.896c0,8.026,3.124,15.562,8.788,21.211
			c5.667,5.666,13.201,8.786,21.217,8.786c8.016,0,15.55-3.121,21.216-8.786l42.42-42.42c5.668-5.668,8.789-13.201,8.789-21.211
			C511.998,431.573,508.88,424.039,503.209,418.355z M471.609,96.953L326.708,241.854l-21.212-21.212l178.839-178.84L471.609,96.953
			z M415.041,40.386l55.151-12.726L291.353,206.499l-21.213-21.213L415.041,40.386z M185.288,270.139l21.214,21.214l-28.008,28.015
			l-21.214-21.22L185.288,270.139z M79.505,489.057c-1.901,1.896-4.418,2.94-7.088,2.94c-2.668,0-5.179-1.041-7.069-2.931
			l-42.42-42.42c-1.889-1.888-2.929-4.4-2.929-7.074s1.04-5.186,2.938-7.083c1.879-1.884,4.386-2.922,7.06-2.922
			s5.18,1.038,7.069,2.932l42.43,42.43c1.889,1.888,2.929,4.399,2.929,7.069C82.425,484.668,81.385,487.177,79.505,489.057z
			 M93.645,446.637c-1.901,1.896-4.415,2.94-7.078,2.94c-2.661,0-5.172-1.042-7.072-2.935l-14.151-14.151
			c-3.892-3.899-3.891-10.237,0.013-14.142c1.879-1.884,4.387-2.922,7.06-2.922c2.673,0,5.186,1.04,7.075,2.928
			c0.001,0.001,0.002,0.002,0.003,0.004l14.136,14.135c0.002,0.002,0.003,0.003,0.005,0.005
			C97.537,436.399,97.537,442.746,93.645,446.637z M121.917,418.356c-1.89,1.89-4.401,2.931-7.069,2.931
			c-2.668,0-5.179-1.041-7.069-2.931l-14.14-14.14c-3.898-3.897-3.898-10.24,0-14.138c1.896-1.896,4.407-2.941,7.069-2.941
			c2.661,0,5.17,1.043,7.066,2.938c0.001,0.001,0.002,0.002,0.003,0.003l14.14,14.14c0.001,0.001,0.002,0.002,0.003,0.003
			c0.001,0,0.001,0.001,0.002,0.002c1.89,1.888,2.931,4.397,2.931,7.064S123.812,416.463,121.917,418.356z M150.197,390.085
			c-1.879,1.884-4.386,2.922-7.059,2.922c-2.675,0-5.189-1.041-7.079-2.931l-14.136-14.135c-3.901-3.906-3.903-10.254-0.013-14.144
			c1.9-1.896,4.417-2.94,7.087-2.94c2.613,0,5.08,1.002,6.95,2.823l14.363,14.363C154.098,379.937,154.053,386.229,150.197,390.085z
			 M206.776,390.075c-1.89,1.89-4.404,2.931-7.079,2.931c-2.673,0-5.181-1.038-7.069-2.931l-28.025-28.025
			c-0.085-0.089-0.17-0.179-0.255-0.265l-14.14-14.14c-0.085-0.085-0.175-0.169-0.263-0.253l-28.027-28.027
			c-3.901-3.9-3.901-10.247,0-14.147c1.89-1.89,4.404-2.931,7.079-2.931c2.673,0,5.181,1.038,7.06,2.922
			c0.001,0,0.001,0.001,0.002,0.002c0.002,0.002,0.004,0.005,0.006,0.007l35.35,35.36c0.033,0.033,0.069,0.06,0.102,0.092
			l35.259,35.259C210.677,379.828,210.677,386.175,206.776,390.075z M213.848,354.714l-21.209-21.209l28.004-28.011l21.212,21.212
			L213.848,354.714z M192.359,248.925L40.307,96.874L27.581,41.723l65.775,65.775c1.953,1.953,4.512,2.929,7.071,2.929
			s5.119-0.976,7.071-2.929c3.905-3.905,3.905-10.237,0-14.143L41.724,27.58l55.151,12.726l152.047,152.047
			c0.002,0.002,0.003,0.003,0.005,0.005s0.003,0.003,0.005,0.005l70.7,70.7c0.002,0.002,0.003,0.003,0.005,0.005
			s0.003,0.003,0.005,0.005l35.075,35.075l-21.213,21.213L164.739,150.595c-3.905-3.905-10.237-3.905-14.143,0
			c-3.905,3.905-3.905,10.237,0,14.143l168.765,168.765l-21.212,21.212L192.359,248.925z M347.606,361.824
			c-0.081,0.082-0.162,0.168-0.242,0.252l-27.997,27.999c-1.889,1.889-4.4,2.929-7.074,2.929c-2.673,0-5.185-1.04-7.074-2.929
			c-1.89-1.89-2.931-4.404-2.931-7.079c0-2.673,1.038-5.18,2.922-7.06c0.001-0.001,0.003-0.003,0.004-0.005
			c0.001-0.002,0.003-0.003,0.005-0.004l35.261-35.261c0.032-0.031,0.067-0.058,0.099-0.089c0.032-0.031,0.058-0.067,0.089-0.099
			l35.262-35.262c0.001-0.001,0.001-0.001,0.002-0.002c1.888-1.886,4.399-2.926,7.07-2.926c2.674,0,5.186,1.04,7.073,2.928
			c1.891,1.891,2.932,4.405,2.932,7.08c0,2.673-1.038,5.181-2.931,7.069l-28.016,28.016c-0.094,0.09-0.192,0.182-0.274,0.264
			L347.606,361.824z M375.936,390.074c-0.001,0.001-0.002,0.002-0.003,0.004c-3.908,3.893-10.25,3.891-14.135,0.006
			c-1.896-1.9-2.94-4.417-2.94-7.087c0-2.612,1.001-5.077,2.818-6.946l14.368-14.368c3.895-3.787,10.187-3.743,14.042,0.113
			c1.884,1.88,2.922,4.387,2.922,7.06c0,2.674-1.04,5.187-2.929,7.077c-0.002,0.002-0.004,0.004-0.007,0.006
			c-0.002,0.002-0.003,0.003-0.005,0.005l-14.121,14.121C375.943,390.068,375.939,390.071,375.936,390.074z M404.216,418.357
			c-1.889,1.888-4.398,2.928-7.068,2.928s-5.181-1.04-7.069-2.929c-1.897-1.897-2.942-4.407-2.942-7.069s1.045-5.172,2.941-7.069
			l14.141-14.14c0.002-0.002,0.003-0.003,0.005-0.004c1.888-1.89,4.396-2.931,7.063-2.931s5.176,1.041,7.068,2.936
			c1.891,1.89,2.932,4.4,2.932,7.069c0,2.666-1.04,5.176-2.928,7.066c-0.001,0.001-0.002,0.002-0.003,0.003
			c-0.002,0.002-0.003,0.003-0.005,0.005L404.216,418.357z M418.352,446.636c-1.885-1.88-2.923-4.387-2.923-7.06
			c0-2.673,1.04-5.186,2.928-7.075c0.001-0.001,0.003-0.002,0.004-0.004l14.14-14.14c1.889-1.889,4.4-2.929,7.074-2.929
			c2.673,0,5.185,1.04,7.064,2.919c1.895,1.903,2.939,4.416,2.939,7.08c0,2.659-1.041,5.167-2.93,7.067l-0.001,0.001
			c-0.001,0.001-0.002,0.002-0.003,0.003l-14.16,14.16C428.584,450.54,422.253,450.538,418.352,446.636z M489.066,446.646
			l-42.42,42.42c-1.889,1.888-4.4,2.928-7.073,2.928c-2.674,0-5.186-1.04-7.084-2.938c-1.884-1.878-2.921-4.386-2.921-7.06
			s1.037-5.181,2.931-7.069l14.135-14.135c0.001-0.001,0.003-0.003,0.005-0.005c0.001-0.001,0.001-0.002,0.002-0.003l14.148-14.148
			l14.141-14.14c1.889-1.888,4.398-2.928,7.068-2.928s5.18,1.04,7.061,2.92c1.896,1.9,2.939,4.417,2.939,7.087
			C491.998,442.245,490.957,444.755,489.066,446.646z"/>
	</g>
</g>
</svg>
