<?xml version="1.0" encoding="iso-8859-1"?>
<!-- Generator: Adobe Illustrator 18.0.0, SVG Export Plug-In . SVG Version: 6.00 Build 0)  -->
<!DOCTYPE svg PUBLIC "-//W3C//DTD SVG 1.1//EN" "http://www.w3.org/Graphics/SVG/1.1/DTD/svg11.dtd">
<svg version="1.1" id="Capa_1" xmlns="http://www.w3.org/2000/svg" xmlns:xlink="http://www.w3.org/1999/xlink" x="0px" y="0px"
	 viewBox="0 0 443.57 443.57" style="enable-background:new 0 0 443.57 443.57;" xml:space="preserve">
<g>
	<path d="M312.267,100.89h19.705c2.784,0,5.129-2.08,5.461-4.845l10.787-89.89c0.188-1.562-0.303-3.129-1.347-4.305
		C345.83,0.673,344.333,0,342.76,0h-26.55c-3.038,0-5.5,2.462-5.5,5.5v34.9h-18.23V5.5c0-3.038-2.462-5.5-5.5-5.5H236.4
		c-3.038,0-5.5,2.462-5.5,5.5v34.9h-18.23V5.5c0-3.038-2.462-5.5-5.5-5.5h-50.58c-3.038,0-5.5,2.462-5.5,5.5v34.9h-18.23V5.5
		c0-3.038-2.462-5.5-5.5-5.5h-26.55c-1.573,0-3.07,0.673-4.114,1.85c-1.044,1.177-1.534,2.744-1.347,4.305l10.787,89.89
		c0.332,2.764,2.677,4.845,5.461,4.845h19.701L95.342,437.486c-0.166,1.552,0.335,3.101,1.378,4.261s2.53,1.823,4.09,1.823h241.945
		c1.561,0,3.047-0.663,4.09-1.823c1.043-1.16,1.544-2.709,1.378-4.261L312.267,100.89z M107.01,11h14.85v34.9
		c0,3.038,2.462,5.5,5.5,5.5h29.23c3.038,0,5.5-2.462,5.5-5.5V11h39.58v34.9c0,3.038,2.462,5.5,5.5,5.5h29.23
		c3.038,0,5.5-2.462,5.5-5.5V11h39.58v34.9c0,3.038,2.462,5.5,5.5,5.5h29.23c3.038,0,5.5-2.462,5.5-5.5V11h14.85l-9.467,78.89
		H116.477L107.01,11z M106.929,432.57l35.432-331.677h158.844l35.432,331.677H106.929z"/>
	<path d="M250.283,198.601h30c3.038,0,5.5-2.462,5.5-5.5V132.07c0-11.304-9.196-20.5-20.5-20.5s-20.5,9.196-20.5,20.5v61.031
		C244.783,196.139,247.245,198.601,250.283,198.601z M255.783,132.07c0-5.238,4.262-9.5,9.5-9.5s9.5,4.262,9.5,9.5v55.531h-19
		V132.07z"/>
	<path d="M242.283,285.085v-61.031c0-11.304-9.196-20.5-20.5-20.5s-20.5,9.196-20.5,20.5v61.031c0,3.038,2.462,5.5,5.5,5.5h30
		C239.82,290.585,242.283,288.123,242.283,285.085z M231.283,279.585h-19v-55.531c0-5.238,4.262-9.5,9.5-9.5s9.5,4.262,9.5,9.5
		V279.585z"/>
	<path d="M178.283,295.539c-11.304,0-20.5,9.196-20.5,20.5v61.031c0,3.038,2.462,5.5,5.5,5.5h30c3.038,0,5.5-2.462,5.5-5.5v-61.031
		C198.783,304.735,189.586,295.539,178.283,295.539z M187.783,371.57h-19v-55.531c0-5.238,4.262-9.5,9.5-9.5s9.5,4.262,9.5,9.5
		V371.57z"/>
	<path d="M172.89,139.57h19c3.038,0,5.5-2.462,5.5-5.5s-2.462-5.5-5.5-5.5h-19c-3.038,0-5.5,2.462-5.5,5.5
		S169.853,139.57,172.89,139.57z"/>
	<path d="M186.39,152.07c0,3.038,2.462,5.5,5.5,5.5h19c3.038,0,5.5-2.462,5.5-5.5s-2.462-5.5-5.5-5.5h-19
		C188.853,146.57,186.39,149.032,186.39,152.07z"/>
	<path d="M259.89,300.57h-19c-3.038,0-5.5,2.462-5.5,5.5s2.462,5.5,5.5,5.5h19c3.038,0,5.5-2.462,5.5-5.5
		S262.928,300.57,259.89,300.57z"/>
	<path d="M284.39,373.07c0,3.038,2.462,5.5,5.5,5.5h19c3.038,0,5.5-2.462,5.5-5.5s-2.462-5.5-5.5-5.5h-19
		C286.853,367.57,284.39,370.032,284.39,373.07z"/>
	<path d="M150.89,392.57h-19c-3.038,0-5.5,2.462-5.5,5.5s2.462,5.5,5.5,5.5h19c3.038,0,5.5-2.462,5.5-5.5
		S153.928,392.57,150.89,392.57z"/>
	<path d="M296.89,384.57h-19c-3.038,0-5.5,2.462-5.5,5.5s2.462,5.5,5.5,5.5h19c3.038,0,5.5-2.462,5.5-5.5
		S299.928,384.57,296.89,384.57z"/>
	<path d="M288.529,64.394H273.53c-3.038,0-5.5,2.462-5.5,5.5s2.462,5.5,5.5,5.5h14.999c3.038,0,5.5-2.462,5.5-5.5
		S291.567,64.394,288.529,64.394z"/>
	<path d="M186.535,52.394h-15c-3.038,0-5.5,2.462-5.5,5.5s2.462,5.5,5.5,5.5h15c3.038,0,5.5-2.462,5.5-5.5
		S189.572,52.394,186.535,52.394z"/>
</g>
</svg>
