<svg viewBox="0 0 512.00023 512" xmlns="http://www.w3.org/2000/svg"><path d="m459.742188 330.5625-92.554688-22.40625c-15.199219-3.800781-25.859375-17.460938-25.855469-33.125v-10.191406c16.089844-11.121094 25.667969-29.457032 25.601563-49.015625v-39.140625c8.625 1.601562 17.375 2.441406 26.144531 2.515625 18.089844 1.0625 35.871094-5.042969 49.496094-16.988281 25.292969-24.132813 18.371093-64.070313 18.054687-65.707032-.566406-3.121094-2.820312-5.667968-5.847656-6.617187-3.023438-.945313-6.328125-.136719-8.574219 2.101562-9.316406 8.117188-22.28125 10.589844-33.9375 6.476563-14.652343-4.589844-30.109375-6.042969-45.363281-4.265625v-25.933594c-.039062-37.683594-30.578125-68.2226562-68.265625-68.265625h-85.308594c-37.683593.0429688-68.222656 30.582031-68.265625 68.265625v25.875c-15.253906-1.773437-30.707031-.320313-45.363281 4.265625-11.652344 4.109375-24.613281 1.632812-33.9375-6.476562-2.246094-2.238282-5.546875-3.050782-8.574219-2.101563s-5.277344 3.496094-5.847656 6.617187c-.3125 1.707032-7.234375 41.617188 18.058594 65.707032 13.621094 11.972656 31.410156 18.097656 49.519531 17.046875 8.769531-.074219 17.519531-.914063 26.144531-2.515625v39.140625c-.066406 19.558593 9.511719 37.894531 25.601563 49.015625v10.191406c.003906 15.75-10.773438 29.457031-26.078125 33.175781l-92.316406 22.355469c-30.691407 7.316406-52.3281255 34.769531-52.273438 66.324219v98.046875c0 9.425781 7.640625 17.066406 17.066406 17.066406h477.867188c9.425781 0 17.066406-7.640625 17.066406-17.066406v-98.046875c.058594-31.546875-21.570312-59-52.257812-66.324219zm-52.839844-215.960938c12.332031 4.335938 25.863281 3.742188 37.769531-1.652343.359375 13.632812-4.613281 26.875-13.859375 36.90625-12.679688 12.105469-34.234375 15.179687-63.878906 9.386719v-47.917969c13.402344-1.824219 27.042968-.707031 39.96875 3.277343zm-325.65625 35.304688c-9.234375-10.050781-14.199219-23.296875-13.832032-36.941406 11.898438 5.367187 25.40625 5.957031 37.726563 1.636718 12.917969-3.949218 26.535156-5.0625 39.925781-3.265624v47.90625c-29.601562 5.785156-51.132812 2.730468-63.820312-9.335938zm80.886718 65.917969v-147.558594c.027344-28.265625 22.933594-51.171875 51.199219-51.199219h85.335938c28.265625.027344 51.171875 22.933594 51.199219 51.199219v147.558594c.054687 16.175781-9.09375 30.976562-23.585938 38.160156l-51.199219 25.601563c-12.019531 5.972656-26.144531 5.972656-38.164062 0l-51.199219-25.601563c-14.492188-7.183594-23.640625-21.984375-23.585938-38.160156zm-13.5 108.964843c22.949219-5.582031 39.105469-26.140624 39.101563-49.757812v-.957031l34.132813 17.066406c-.121094 16.007813-2.875 32.496094-5.972657 35.636719-2.21875 2.140625-3.109375 5.3125-2.328125 8.296875s3.109375 5.3125 6.09375 6.09375 6.15625-.109375 8.300782-2.328125c8.011718-8.003906 10.238281-27.84375 10.820312-40.34375 14.585938 4.503906 30.347656 3.203125 43.996094-3.636719l41.488281-20.785156v.957031c-.027344 23.507812 15.980469 44.007812 38.792969 49.679688l4.582031 1.109374-23.414063 10.238282c-3.585937 1.566406-6.261718 4.683594-7.257812 8.46875-1 3.785156-.210938 7.816406 2.136719 10.945312l5.351562 7.125-13.371093 4.457032c-1.898438.621093-3.625 1.683593-5.035157 3.097656l-8.609375 8.617187-8.917968-14.867187c-3.320313-5.511719-10.21875-7.703125-16.113282-5.117188l-22.707031 9.941406c-8.730469 3.804688-18.652344 3.804688-27.382813 0l-46.546874-20.40625c-.953126-.402343-1.964844-.640624-2.996094-.699218-.179688 0-.375 0-.519532 0-1.082031.003906-2.15625.210937-3.160156.617187l-.628906.289063-9.269531 4.574218v-3.601562c0-5.085938-3.015625-9.691406-7.679688-11.726562l-27.238281-11.945313zm346.300782 170.144532h-85.332032v-51.199219c0-4.714844-3.820312-8.535156-8.535156-8.535156-4.710937 0-8.53125 3.820312-8.53125 8.535156v51.199219h-273.070312v-51.199219c0-4.714844-3.820313-8.535156-8.53125-8.535156-4.714844 0-8.535156 3.820312-8.535156 8.535156v51.199219h-85.332032v-98.046875c-.035156-23.675781 16.21875-44.265625 39.253906-49.734375l60.585938-14.683594 45.226562 19.820312v7.722657c0 4.441406 2.300782 8.566406 6.078126 10.898437 3.777343 2.332032 8.496093 2.539063 12.464843.546875l11.863281-5.972656 42.921876 18.773437c13.097656 5.71875 27.988281 5.71875 41.085937 0l19.253906-8.441406 9.804688 16.339844c2.023437 3.382812 5.496093 5.640625 9.410156 6.125 3.910156.484375 7.828125-.863281 10.617187-3.648438l11.773438-11.769531 18.09375-6.03125c3.902344-1.304687 6.9375-4.40625 8.160156-8.335937 1.222656-3.929688.480469-8.207032-1.992187-11.496094l-5.664063-7.542969 39.074219-17.066406 60.644531 14.6875c23.042969 5.492187 39.28125 26.117187 39.210938 49.808594zm0 0"/><path d="m238.933594 213.332031v-8.53125c0-4.714843-3.820313-8.535156-8.535156-8.535156-4.710938 0-8.53125 3.820313-8.53125 8.535156v8.53125h-17.066407c-4.714843 0-8.535156 3.820313-8.535156 8.535157 0 4.710937 3.820313 8.53125 8.535156 8.53125h102.398438c4.714843 0 8.535156-3.820313 8.535156-8.53125 0-4.714844-3.820313-8.535157-8.535156-8.535157h-17.066407v-8.53125c0-4.714843-3.820312-8.535156-8.53125-8.535156-4.714843 0-8.535156 3.820313-8.535156 8.535156v8.53125zm0 0"/><path d="m187.734375 110.933594h17.066406v17.066406c0 4.714844 3.820313 8.535156 8.53125 8.535156 4.714844 0 8.535157-3.820312 8.535157-8.535156v-17.066406h8.53125c4.714843 0 8.535156-3.820313 8.535156-8.535156 0-4.710938-3.820313-8.53125-8.535156-8.53125h-42.664063c-4.714844 0-8.535156 3.820312-8.535156 8.53125 0 4.714843 3.820312 8.535156 8.535156 8.535156zm0 0"/><path d="m281.601562 110.933594h8.53125v17.066406c0 4.714844 3.820313 8.535156 8.535157 8.535156 4.710937 0 8.53125-3.820312 8.53125-8.535156v-17.066406h17.066406c4.714844 0 8.535156-3.820313 8.535156-8.535156 0-4.710938-3.820312-8.53125-8.535156-8.53125h-42.664063c-4.714843 0-8.535156 3.820312-8.535156 8.53125 0 4.714843 3.820313 8.535156 8.535156 8.535156zm0 0"/><path d="m221.867188 51.199219c4.710937 0 8.53125-3.820313 8.53125-8.53125v-8.535157c0-4.710937-3.820313-8.53125-8.53125-8.53125-4.714844 0-8.535157 3.820313-8.535157 8.53125v8.535157c0 4.710937 3.820313 8.53125 8.535157 8.53125zm0 0"/><path d="m256 51.199219c4.714844 0 8.535156-3.820313 8.535156-8.53125v-8.535157c0-4.710937-3.820312-8.53125-8.535156-8.53125-4.710938 0-8.535156 3.820313-8.535156 8.53125v8.535157c0 4.710937 3.824218 8.53125 8.535156 8.53125zm0 0"/><path d="m290.132812 51.199219c4.714844 0 8.535157-3.820313 8.535157-8.53125v-8.535157c0-4.710937-3.820313-8.53125-8.535157-8.53125-4.710937 0-8.53125 3.820313-8.53125 8.53125v8.535157c0 4.710937 3.820313 8.53125 8.53125 8.53125zm0 0"/><path d="m243.6875 402.507812c-2.871094-1.917968-6.617188-1.917968-9.488281 0l-23.425781 15.625h-14.507813c-3.914063 0-7.324219 2.664063-8.277344 6.460938l-8.53125 34.132812c-.640625 2.550782-.066406 5.25 1.550781 7.324219 1.617188 2.070313 4.097657 3.28125 6.726563 3.28125.574219.007813 1.144531-.050781 1.707031-.167969l42.664063-8.535156c3.375-.675781 6.015625-3.3125 6.691406-6.691406l8.535156-42.664062c.671875-3.390626-.769531-6.851563-3.644531-8.765626zm-20.539062 42.503907-23.894532 4.773437 3.675782-14.585937h10.402343c1.6875 0 3.332031-.5 4.738281-1.433594l8.457032-5.640625zm0 0"/></svg>