<svg viewBox="0 0 511 512" width="512pt" xmlns="http://www.w3.org/2000/svg"><path d="m335.035156 156.25-330.140625 330.144531c-5.859375 5.855469-5.859375 15.355469 0 21.210938 2.925781 2.929687 6.765625 4.394531 10.605469 4.394531s7.675781-1.464844 10.605469-4.394531l330.144531-330.144531zm0 0" fill="#ffd396"/><path d="m371.773438 323.25c-27.210938-27.210938-63.390626-42.195312-101.867188-42.195312-15.847656 0-31.300781 2.546874-45.898438 7.4375 4.890626-14.601563 7.4375-30.050782 7.4375-45.894532 0-38.484375-14.988281-74.664062-42.199218-101.871094-5.855469-5.859374-15.355469-5.859374-21.210938 0-56.171875 56.171876-56.171875 147.566407-.003906 203.738282 0 0 0 .003906.003906.003906 27.203125 27.207031 63.382813 42.191406 101.867188 42.195312h.011718c38.472657 0 74.648438-14.984374 101.859376-42.195312 2.816406-2.8125 4.394531-6.632812 4.394531-10.609375 0-3.980469-1.582031-7.796875-4.394531-10.609375zm0 0" fill="#ff9f00"/><path d="m439.941406 255.085938c-27.210937-27.210938-63.386718-42.195313-101.867187-42.195313-15.886719 0-31.378907 2.5625-46.011719 7.476563 16.800781-50.207032 5.257812-107.898438-34.648438-147.808594-2.816406-2.8125-6.632812-4.394532-10.609374-4.394532-3.976563 0-7.796876 1.582032-10.609376 4.398438-56.167968 56.167969-56.167968 147.566406 0 203.738281 0 .003907 0 .003907.003907.003907 27.210937 27.210937 63.386719 42.195312 101.867187 42.195312 38.480469 0 74.660156-14.988281 101.875-42.199219 2.8125-2.8125 4.394532-6.628906 4.394532-10.605469-.003907-3.980468-1.582032-7.796874-4.394532-10.609374zm0 0" fill="#f77e00"/><path d="m338.074219 212.890625c-15.851563 0-31.304688 2.550781-45.90625 7.4375l-55.972657 55.976563c27.210938 27.210937 63.390626 42.195312 101.871094 42.195312 38.480469 0 74.660156-14.988281 101.875-42.199219 2.8125-2.8125 4.390625-6.628906 4.390625-10.605469 0-3.980468-1.578125-7.792968-4.390625-10.605468-27.210937-27.214844-63.386718-42.199219-101.867187-42.199219zm0 0" fill="#ff9f00"/><path d="m508.105469 186.921875c-27.210938-27.210937-63.390625-42.195313-101.871094-42.195313-15.84375 0-31.296875 2.546876-45.898437 7.433594 4.890624-14.597656 7.4375-30.050781 7.4375-45.894531 0-38.480469-14.984376-74.660156-42.195313-101.871094-2.8125-2.816406-6.628906-4.394531-10.609375-4.394531-3.976562 0-7.792969 1.578125-10.605469 4.394531-27.210937 27.210938-42.195312 63.390625-42.195312 101.871094s14.984375 74.65625 42.191406 101.867187c0 0 .003906.003907.003906.003907 27.210938 27.210937 63.390625 42.199219 101.871094 42.199219 38.386719 0 74.480469-14.914063 101.671875-42 1.457031-1.40625 2.644531-3.117188 3.453125-5.066407 2.320313-5.605469 1.035156-12.054687-3.253906-16.347656zm0 0" fill="#ff9f00"/><path d="m508.105469 186.921875c-27.210938-27.210937-63.390625-42.195313-101.871094-42.195313-15.84375 0-31.296875 2.546876-45.898437 7.433594l-55.972657 55.976563c27.210938 27.210937 63.386719 42.199219 101.871094 42.199219 38.386719 0 74.480469-14.914063 101.667969-42 1.460937-1.40625 2.648437-3.117188 3.453125-5.066407 2.324219-5.605469 1.039062-12.054687-3.25-16.347656zm0 0" fill="#f77e00"/><path d="m474.710938 22.789062c-79.4375 0-144.070313 64.628907-144.070313 144.066407 0 8.285156 6.71875 15 15 15h.011719c38.476562 0 74.65625-14.988281 101.863281-42.195313 27.210937-27.210937 42.195313-63.390625 42.195313-101.871094 0-8.285156-6.714844-15-15-15zm0 0" fill="#f77e00"/><path d="m485.316406 27.183594-150.28125 150.28125c2.714844 2.710937 6.464844 4.390625 10.605469 4.390625h.007813c38.476562 0 74.660156-14.984375 101.867187-42.195313 27.210937-27.207031 42.195313-63.386718 42.195313-101.871094 0-4.144531-1.679688-7.894531-4.394532-10.605468zm0 0" fill="#ff9f00"/><path d="m269.90625 281.054688c-15.847656 0-31.300781 2.546874-45.898438 7.4375l-55.976562 55.976562c27.207031 27.207031 63.382812 42.191406 101.867188 42.195312h.015624c38.472657 0 74.648438-14.984374 101.859376-42.195312 2.8125-2.8125 4.394531-6.632812 4.394531-10.609375 0-3.980469-1.582031-7.796875-4.394531-10.605469-27.210938-27.214844-63.386719-42.199218-101.867188-42.199218zm0 0" fill="#f77e00"/></svg>