<?xml version="1.0" encoding="iso-8859-1"?>
<!-- Generator: Adobe Illustrator 16.0.0, SVG Export Plug-In . SVG Version: 6.00 Build 0)  -->
<!DOCTYPE svg PUBLIC "-//W3C//DTD SVG 1.1//EN" "http://www.w3.org/Graphics/SVG/1.1/DTD/svg11.dtd">
<svg version="1.1" id="Capa_1" xmlns="http://www.w3.org/2000/svg" xmlns:xlink="http://www.w3.org/1999/xlink" x="0px" y="0px"
	 viewBox="0 0 88.468 88.468" style="enable-background:new 0 0 88.468 88.468;"
	 xml:space="preserve">
<g>
	<path d="M29.827,49.725l10.294,10.293L19.768,80.374L9.473,70.079L29.827,49.725z M52.47,27.078l-5.631,5.63l10.295,10.294
		l5.633-5.63L52.47,27.078z M67.672,1.492H56.685l-6.717,6.771v10.988l20.623,20.741h10.986l6.891-6.832V22.172L67.672,1.492z
		 M61.296,53.359l-27.85-27.854c1.538-4.928,0.833-10.499-2.396-15.071c-3.739-5.297-9.1-8.419-16.073-7.078l8.16,11.557
		l-3.747,8.715l-9.467,0.614L1.645,12.516c-2.315,5.136-2.467,12.283,1.368,17.713c4.69,6.644,13.288,8.893,20.533,5.963
		l26.95,26.95c-2.182,5.205-1.768,11.371,1.661,16.371c3.668,5.349,9.821,7.967,15.851,7.381l-8.003-11.67l3.865-8.664l9.475-0.48
		l8.119,11.838c2.938-5.479,2.799-12.363-0.959-17.845C76.151,53.723,68.291,51.215,61.296,53.359z"/>
</g>
</svg>
