<svg viewBox="0 0 512 512" xmlns="http://www.w3.org/2000/svg"><path d="m320 208c.230469-62.101562-49.929688-112.632812-112.03125-112.863281s-112.632812 49.925781-112.863281 112.03125c-.230469 62.101562 49.929687 112.632812 112.03125 112.863281 24.4375.089844 48.242187-7.785156 67.808593-22.429688l113.742188 113.742188 22.625-22.625-113.710938-113.773438c14.535157-19.292968 22.398438-42.789062 22.398438-66.945312zm-192 0c0-44.183594 35.816406-80 80-80s80 35.816406 80 80-35.816406 80-80 80c-44.160156-.054688-79.945312-35.839844-80-80zm0 0"/><path d="m160 192h96v32h-96zm0 0"/><path d="m432 0h-352c-44.160156.0546875-79.9453125 35.839844-80 80v352c.0546875 44.160156 35.839844 79.945312 80 80h352c44.160156-.054688 79.945312-35.839844 80-80v-352c-.054688-44.160156-35.839844-79.9453125-80-80zm48 432c0 26.507812-21.492188 48-48 48h-352c-26.507812 0-48-21.492188-48-48v-352c0-26.507812 21.492188-48 48-48h352c26.507812 0 48 21.492188 48 48zm0 0"/></svg>